<svg height='100px' width='100px'  fill="#e42312" xmlns="http://www.w3.org/2000/svg" xmlns:xlink="http://www.w3.org/1999/xlink" xml:space="preserve" version="1.1" style="shape-rendering:geometricPrecision;text-rendering:geometricPrecision;image-rendering:optimizeQuality;" viewBox="0 0 548.06 387.36" x="0px" y="0px" fill-rule="evenodd" clip-rule="evenodd"><defs><style type="text/css">
   
    .fil0 {fill:#e42312}
   
  </style></defs><g><path class="fil0" d="M213.78 114.96l8.41 -18.83c-6.01,-4.24 -9.26,-9.37 -7.66,-12.94 2.13,-4.76 12.05,-4.94 22.18,-0.41 10.13,4.53 16.62,12.04 14.48,16.8 -1.59,3.58 -7.58,4.57 -14.75,2.92l-9.74 21.79c-3.92,8.78 8.13,17.08 14.93,10.28l47.07 -47.07c-6.02,-8.21 -8.02,-16.48 -4.3,-20.19 4.62,-4.63 16.32,-0.4 26.14,9.44 9.84,9.82 14.07,21.52 9.44,26.14 -3.71,3.72 -11.98,1.72 -20.19,-4.3l-44.78 44.77c-9.54,9.52 0.77,25.42 13.36,20.6l19.27 -7.37c-1.24,-7.23 0.08,-13.15 3.73,-14.55 4.88,-1.85 12.02,5.03 15.98,15.39 3.96,10.37 3.24,20.27 -1.64,22.13 -3.64,1.4 -8.58,-2.14 -12.49,-8.36l-22.28 8.53c-8.99,3.45 -6.32,17.81 3.28,17.81l66.55 0c1.55,-10.06 6,-17.33 11.24,-17.33 6.54,0 11.82,11.27 11.81,25.17 0.01,13.89 -5.27,25.16 -11.81,25.16 -5.24,0 -9.69,-7.27 -11.24,-17.33l-63.31 0c-13.48,0 -17.42,18.53 -5.12,24.03l18.82 8.41c4.24,-6 9.37,-9.26 12.94,-7.66 4.76,2.13 4.94,12.05 0.41,22.18 -4.53,10.13 -12.04,16.62 -16.8,14.48 -3.58,-1.59 -4.57,-7.58 -2.92,-14.75l-21.79 -9.73c-8.77,-3.93 -17.08,8.12 -10.28,14.92l47.07 47.07c8.21,-6.02 16.48,-8.02 20.19,-4.3 4.63,4.62 0.4,16.32 -9.44,26.14 -9.82,9.84 -21.52,14.07 -26.14,9.44 -3.72,-3.71 -1.72,-11.98 4.3,-20.19l-44.79 -44.79c-9.51,-9.52 -25.41,0.77 -20.59,13.35l7.38 19.29c7.23,-1.25 13.15,0.08 14.55,3.73 1.85,4.88 -5.03,12.02 -15.39,15.98 -10.37,3.96 -20.27,3.24 -22.13,-1.64 -1.4,-3.64 2.14,-8.58 8.36,-12.49l-8.53 -22.29c-3.45,-8.99 -17.81,-6.32 -17.81,3.28l0 66.56c10.06,1.55 17.33,6 17.33,11.24 0,6.54 -11.27,11.82 -25.16,11.81 -13.9,0.01 -25.17,-5.27 -25.17,-11.81 0,-5.24 7.27,-9.69 17.33,-11.24l0 -63.31c0,-13.48 -18.53,-17.42 -24.03,-5.12l-8.41 18.82c6,4.24 9.26,9.37 7.66,12.94 -2.13,4.76 -12.05,4.94 -22.18,0.41 -10.13,-4.53 -16.62,-12.04 -14.48,-16.8 1.59,-3.58 7.58,-4.57 14.75,-2.92l9.73 -21.79c3.93,-8.77 -8.12,-17.08 -14.92,-10.28l-47.07 47.07c6.02,8.21 8.02,16.48 4.3,20.19 -4.62,4.63 -16.32,0.4 -26.14,-9.44 -9.84,-9.82 -14.07,-21.52 -9.44,-26.14 3.71,-3.72 11.98,-1.72 20.19,4.3l44.79 -44.79c9.52,-9.51 -0.77,-25.41 -13.35,-20.59l-19.29 7.38c1.25,7.23 -0.08,13.15 -3.73,14.55 -4.88,1.85 -12.02,-5.03 -15.98,-15.39 -3.96,-10.37 -3.24,-20.27 1.64,-22.13 3.64,-1.4 8.58,2.14 12.49,8.36l22.29 -8.53c8.99,-3.45 6.32,-17.81 -3.28,-17.81l-66.56 0c-1.55,10.06 -6,17.33 -11.24,17.33 -6.54,0 -11.82,-11.27 -11.81,-25.16 -0.01,-13.9 5.27,-25.17 11.81,-25.17 5.24,0 9.69,7.27 11.24,17.33l63.31 0c13.48,0 17.42,-18.53 5.12,-24.03l-18.82 -8.41c-4.24,6 -9.37,9.26 -12.94,7.66 -4.76,-2.13 -4.94,-12.05 -0.41,-22.18 4.53,-10.13 12.04,-16.62 16.8,-14.48 3.58,1.59 4.57,7.58 2.92,14.75l21.79 9.73c8.77,3.93 17.08,-8.12 10.28,-14.92l-47.07 -47.07c-8.21,6.02 -16.48,8.02 -20.19,4.3 -4.63,-4.62 -0.4,-16.32 9.44,-26.14 9.82,-9.84 21.52,-14.07 26.14,-9.44 3.72,3.71 1.72,11.98 -4.3,20.19l44.79 44.79c9.51,9.52 25.41,-0.77 20.59,-13.35l-7.38 -19.29c-7.23,1.23 -13.15,-0.08 -14.55,-3.73 -1.85,-4.88 5.03,-12.02 15.39,-15.98 10.37,-3.96 20.27,-3.24 22.13,1.64 1.4,3.64 -2.13,8.58 -8.36,12.49l8.53 22.29c3.45,8.99 17.81,6.32 17.81,-3.28l0 -66.56c-10.06,-1.55 -17.33,-6 -17.33,-11.24 0,-6.54 11.27,-11.82 25.17,-11.82 13.89,0 25.16,5.28 25.16,11.82 0,5.24 -7.27,9.69 -17.33,11.24l0 63.32c0,13.47 18.55,17.44 24.03,5.12z"></path><path class="fil0" d="M467.95 48.85l4.49 -10.05c-3.21,-2.27 -4.94,-5.01 -4.09,-6.91 1.14,-2.54 6.44,-2.64 11.84,-0.22 5.41,2.42 8.88,6.43 7.74,8.97 -0.85,1.91 -4.05,2.44 -7.88,1.56l-5.2 11.63c-2.1,4.69 4.34,9.12 7.97,5.49l25.13 -25.13c-3.21,-4.38 -4.28,-8.8 -2.29,-10.78 2.46,-2.47 8.71,-0.21 13.95,5.04 5.25,5.24 7.51,11.49 5.04,13.95 -1.98,1.99 -6.4,0.92 -10.78,-2.29l-23.9 23.9c-5.1,5.09 0.41,13.57 7.12,11l10.29 -3.93c-0.66,-3.87 0.05,-7.03 2,-7.77 2.6,-0.99 6.41,2.68 8.53,8.22 2.11,5.53 1.73,10.81 -0.88,11.81 -1.94,0.74 -4.58,-1.14 -6.67,-4.46l-11.89 4.55c-4.8,1.84 -3.38,9.51 1.75,9.51l35.53 0c0.82,-5.37 3.2,-9.26 6,-9.26 3.49,0 6.31,6.02 6.31,13.44 0,7.42 -2.82,13.44 -6.31,13.44 -2.8,0 -5.18,-3.89 -6,-9.26l-33.8 0c-7.2,0 -9.3,9.89 -2.74,12.83l10.05 4.49c2.27,-3.2 5.01,-4.94 6.91,-4.09 2.54,1.14 2.64,6.44 0.22,11.84 -2.42,5.41 -6.43,8.88 -8.97,7.74 -1.91,-0.85 -2.44,-4.05 -1.56,-7.88l-11.63 -5.2c-4.68,-2.1 -9.12,4.34 -5.49,7.97l25.13 25.13c4.38,-3.21 8.8,-4.28 10.78,-2.29 2.47,2.46 0.21,8.71 -5.04,13.95 -5.24,5.25 -11.49,7.51 -13.95,5.04 -1.99,-1.98 -0.92,-6.4 2.29,-10.78l-23.91 -23.91c-5.08,-5.08 -13.57,0.41 -10.99,7.12l3.93 10.3c3.87,-0.66 7.03,0.05 7.77,2 0.99,2.6 -2.68,6.41 -8.22,8.53 -5.53,2.11 -10.81,1.73 -11.81,-0.88 -0.74,-1.94 1.14,-4.58 4.46,-6.67l-4.55 -11.9c-1.84,-4.79 -9.51,-3.37 -9.51,1.76l0 35.53c5.37,0.82 9.26,3.2 9.26,6 0,3.49 -6.02,6.31 -13.44,6.31 -7.42,0 -13.44,-2.82 -13.44,-6.31 0,-2.8 3.89,-5.18 9.26,-6l0 -33.8c0,-7.2 -9.89,-9.3 -12.83,-2.74l-4.49 10.05c3.2,2.27 4.94,5.01 4.09,6.91 -1.14,2.54 -6.44,2.64 -11.84,0.22 -5.41,-2.42 -8.88,-6.43 -7.74,-8.97 0.85,-1.91 4.05,-2.44 7.88,-1.56l5.2 -11.63c2.1,-4.68 -4.34,-9.12 -7.97,-5.49l-25.13 25.13c3.21,4.38 4.28,8.8 2.29,10.78 -2.46,2.47 -8.71,0.21 -13.95,-5.04 -5.25,-5.24 -7.51,-11.49 -5.04,-13.95 1.98,-1.99 6.4,-0.92 10.78,2.29l23.91 -23.91c5.08,-5.08 -0.41,-13.57 -7.12,-10.99l-10.3 3.93c0.66,3.87 -0.05,7.03 -2,7.77 -2.6,0.99 -6.41,-2.68 -8.53,-8.22 -2.11,-5.53 -1.73,-10.81 0.88,-11.81 1.94,-0.74 4.58,1.14 6.67,4.46l11.9 -4.55c4.79,-1.84 3.37,-9.51 -1.76,-9.51l-35.53 0c-0.82,5.37 -3.2,9.26 -6,9.26 -3.49,0 -6.31,-6.02 -6.31,-13.44 0,-7.42 2.82,-13.44 6.31,-13.44 2.8,0 5.18,3.89 6,9.26l33.8 0c7.2,0 9.3,-9.89 2.74,-12.83l-10.05 -4.49c-2.27,3.2 -5.01,4.94 -6.91,4.09 -2.54,-1.14 -2.64,-6.44 -0.22,-11.84 2.42,-5.41 6.43,-8.88 8.97,-7.74 1.91,0.85 2.44,4.05 1.56,7.88l11.63 5.2c4.68,2.1 9.12,-4.34 5.49,-7.97l-25.13 -25.13c-4.38,3.21 -8.8,4.28 -10.78,2.29 -2.47,-2.46 -0.21,-8.71 5.04,-13.95 5.24,-5.25 11.49,-7.51 13.95,-5.04 1.99,1.98 0.92,6.4 -2.29,10.78l23.91 23.91c5.08,5.08 13.57,-0.41 10.99,-7.12l-3.93 -10.3c-3.87,0.65 -7.03,-0.05 -7.77,-2 -0.99,-2.6 2.68,-6.41 8.22,-8.53 5.53,-2.11 10.81,-1.73 11.81,0.88 0.74,1.94 -1.14,4.58 -4.46,6.67l4.55 11.9c1.84,4.79 9.51,3.37 9.51,-1.76l0 -35.53c-5.37,-0.82 -9.26,-3.2 -9.26,-6 0,-3.49 6.02,-6.31 13.44,-6.31 7.42,0 13.44,2.82 13.44,6.31 0,2.8 -3.89,5.18 -9.26,6l0 33.8c0,7.2 9.9,9.32 12.83,2.74z"></path><path class="fil0" d="M472.75 263.91l3.81 -8.54c-2.73,-1.92 -4.2,-4.25 -3.48,-5.87 0.97,-2.15 5.47,-2.24 10.06,-0.18 4.59,2.05 7.53,5.46 6.56,7.62 -0.72,1.62 -3.43,2.06 -6.68,1.32l-4.42 9.88c-1.78,3.98 3.69,7.74 6.77,4.66l21.34 -21.34c-2.73,-3.72 -3.64,-7.47 -1.95,-9.15 2.09,-2.1 7.39,-0.18 11.85,4.27 4.45,4.46 6.37,9.76 4.27,11.85 -1.68,1.69 -5.43,0.78 -9.15,-1.95l-20.3 20.3c-4.32,4.32 0.35,11.52 6.06,9.34l8.73 -3.34c-0.56,-3.28 0.04,-5.97 1.69,-6.6 2.21,-0.84 5.45,2.28 7.25,6.98 1.79,4.7 1.47,9.18 -0.74,10.03 -1.66,0.63 -3.89,-0.97 -5.67,-3.79l-10.1 3.86c-4.07,1.57 -2.86,8.08 1.49,8.08l30.17 0c0.7,-4.56 2.72,-7.86 5.09,-7.86 2.97,0 5.36,5.11 5.36,11.41 0,6.3 -2.39,11.41 -5.36,11.41 -2.37,0 -4.39,-3.3 -5.09,-7.86l-28.7 0c-6.11,0 -7.9,8.4 -2.32,10.9l8.53 3.81c1.92,-2.72 4.25,-4.2 5.87,-3.48 2.15,0.97 2.24,5.47 0.18,10.06 -2.05,4.59 -5.46,7.53 -7.62,6.56 -1.62,-0.72 -2.06,-3.43 -1.32,-6.68l-9.88 -4.42c-3.97,-1.78 -7.74,3.69 -4.66,6.77l21.34 21.34c3.72,-2.73 7.47,-3.64 9.15,-1.95 2.1,2.09 0.18,7.39 -4.27,11.85 -4.46,4.45 -9.76,6.37 -11.85,4.27 -1.69,-1.68 -0.78,-5.43 1.95,-9.15l-20.31 -20.3c-4.31,-4.32 -11.52,0.35 -9.33,6.05l3.34 8.74c3.28,-0.56 5.97,0.04 6.6,1.69 0.84,2.21 -2.28,5.45 -6.98,7.25 -4.7,1.79 -9.18,1.47 -10.03,-0.74 -0.63,-1.66 0.97,-3.89 3.79,-5.67l-3.86 -10.1c-1.57,-4.07 -8.08,-2.87 -8.08,1.49l0 30.17c4.56,0.7 7.86,2.72 7.86,5.09 0,2.97 -5.11,5.36 -11.41,5.36 -6.3,0 -11.41,-2.39 -11.41,-5.36 0,-2.37 3.3,-4.39 7.86,-5.09l0 -28.7c0,-6.11 -8.4,-7.9 -10.9,-2.32l-3.81 8.53c2.72,1.92 4.2,4.25 3.48,5.87 -0.97,2.15 -5.47,2.24 -10.06,0.18 -4.59,-2.05 -7.53,-5.46 -6.56,-7.62 0.72,-1.62 3.43,-2.06 6.68,-1.32l4.42 -9.88c1.78,-3.97 -3.69,-7.74 -6.77,-4.66l-21.34 21.34c2.73,3.72 3.64,7.47 1.95,9.15 -2.09,2.1 -7.39,0.18 -11.85,-4.27 -4.45,-4.46 -6.37,-9.76 -4.27,-11.85 1.68,-1.69 5.43,-0.78 9.15,1.95l20.3 -20.31c4.32,-4.31 -0.35,-11.52 -6.05,-9.33l-8.74 3.34c0.56,3.28 -0.04,5.97 -1.69,6.6 -2.21,0.84 -5.45,-2.28 -7.25,-6.98 -1.79,-4.7 -1.47,-9.18 0.74,-10.03 1.66,-0.63 3.89,0.97 5.67,3.79l10.1 -3.86c4.07,-1.57 2.87,-8.08 -1.49,-8.08l-30.17 0c-0.7,4.56 -2.72,7.86 -5.09,7.86 -2.97,0 -5.36,-5.11 -5.36,-11.41 0,-6.3 2.39,-11.41 5.36,-11.41 2.37,0 4.39,3.3 5.09,7.86l28.7 0c6.11,0 7.9,-8.4 2.32,-10.9l-8.53 -3.81c-1.92,2.72 -4.25,4.2 -5.87,3.48 -2.15,-0.97 -2.24,-5.47 -0.18,-10.06 2.05,-4.59 5.46,-7.53 7.62,-6.56 1.62,0.72 2.06,3.43 1.32,6.68l9.88 4.42c3.97,1.78 7.74,-3.69 4.66,-6.77l-21.34 -21.34c-3.72,2.73 -7.47,3.64 -9.15,1.95 -2.1,-2.09 -0.18,-7.39 4.27,-11.85 4.46,-4.45 9.76,-6.37 11.85,-4.27 1.69,1.68 0.78,5.43 -1.95,9.15l20.31 20.3c4.31,4.32 11.52,-0.35 9.33,-6.05l-3.34 -8.74c-3.28,0.55 -5.97,-0.04 -6.6,-1.69 -0.84,-2.21 2.28,-5.45 6.98,-7.25 4.7,-1.79 9.18,-1.47 10.03,0.74 0.63,1.66 -0.97,3.89 -3.79,5.67l3.86 10.1c1.57,4.07 8.08,2.87 8.08,-1.49l0 -30.17c-4.56,-0.7 -7.86,-2.72 -7.86,-5.09 0,-2.97 5.11,-5.36 11.41,-5.36 6.3,0 11.41,2.39 11.41,5.36 0,2.37 -3.3,4.39 -7.86,5.09l0 28.7c0,6.11 8.41,7.91 10.9,2.33z"></path></g></svg>