<?xml version="1.0" encoding="UTF-8" standalone="no"?>
<svg
   xmlns:dc="http://purl.org/dc/elements/1.1/"
   xmlns:cc="http://creativecommons.org/ns#"
   xmlns:rdf="http://www.w3.org/1999/02/22-rdf-syntax-ns#"
   xmlns:svg="http://www.w3.org/2000/svg"
   xmlns="http://www.w3.org/2000/svg"
   xmlns:sodipodi="http://sodipodi.sourceforge.net/DTD/sodipodi-0.dtd"
   xmlns:inkscape="http://www.inkscape.org/namespaces/inkscape"
   inkscape:version="1.0 (4035a4fb49, 2020-05-01)"
   sodipodi:docname="serohubBoxes.svg"
   id="svg8"
   version="1.1"
   viewBox="0 0 3714.8535 1767.1549"
   height="467.55972mm"
   width="982.88831mm">
  <sodipodi:namedview
     inkscape:current-layer="svg8"
     inkscape:window-maximized="1"
     inkscape:window-y="32"
     inkscape:window-x="-8"
     inkscape:cy="622.13866"
     inkscape:cx="1269.827"
     inkscape:zoom="0.28937885"
     showgrid="false"
     id="namedview34"
     inkscape:window-height="1377"
     inkscape:window-width="2560"
     inkscape:pageshadow="2"
     inkscape:pageopacity="0"
     guidetolerance="10"
     gridtolerance="10"
     objecttolerance="10"
     borderopacity="1"
     bordercolor="#666666"
     pagecolor="#ffffff" />
  <defs
     id="defs2">
    <marker
       orient="auto"
       refY="0"
       refX="0"
       id="marker1361"
       style="overflow:visible">
      <path
         id="path1359"
         d="M 5.77,0 -2.88,5 V -5 Z"
         style="fill:#002b4f;fill-opacity:1;fill-rule:evenodd;stroke:#002b4f;stroke-width:1pt;stroke-opacity:1"
         transform="scale(0.4)" />
    </marker>
    <marker
       orient="auto"
       refY="0"
       refX="0"
       id="marker1241"
       style="overflow:visible">
      <path
         id="path1239"
         d="M 5.77,0 -2.88,5 V -5 Z"
         style="fill:#002b4f;fill-opacity:1;fill-rule:evenodd;stroke:#002b4f;stroke-width:1pt;stroke-opacity:1"
         transform="scale(0.4)" />
    </marker>
    <marker
       orient="auto"
       refY="0"
       refX="0"
       id="marker1231"
       style="overflow:visible">
      <path
         id="path1229"
         d="M 5.77,0 -2.88,5 V -5 Z"
         style="fill:#002b4f;fill-opacity:1;fill-rule:evenodd;stroke:#002b4f;stroke-width:1pt;stroke-opacity:1"
         transform="scale(0.4)" />
    </marker>
    <marker
       style="overflow:visible"
       id="marker2267"
       refX="0"
       refY="0"
       orient="auto">
      <path
         transform="scale(0.4)"
         style="fill:#002b4f;fill-opacity:1;fill-rule:evenodd;stroke:#002b4f;stroke-width:1pt;stroke-opacity:1"
         d="M 5.77,0 -2.88,5 V -5 Z"
         id="path2265" />
    </marker>
  </defs>
  <metadata
     id="metadata5">
    <rdf:RDF>
      <cc:Work
         rdf:about="">
        <dc:format>image/svg+xml</dc:format>
        <dc:type
           rdf:resource="http://purl.org/dc/dcmitype/StillImage" />
        <dc:title />
      </cc:Work>
    </rdf:RDF>
  </metadata>
  <path
     d="M -3.8799999e-4,-1767.1549 H 1020.7476 v 449.0048 H -3.8799999e-4 Z"
     transform="scale(1,-1)"
     style="fill:#005b9c;fill-opacity:1;stroke:none;stroke-width:87.3988;stroke-miterlimit:4;stroke-dasharray:none;stroke-opacity:1;paint-order:markers stroke fill;stop-color:#000000"
     id="rect1117" />
  <path
     d="m 1347.0522,-1767.1549 h 1020.748 v 449.0048 h -1020.748 z"
     transform="scale(1,-1)"
     style="fill:#005b9c;fill-opacity:1;stroke:none;stroke-width:87.3988;stroke-miterlimit:4;stroke-dasharray:none;stroke-opacity:1;paint-order:markers stroke fill;stop-color:#000000"
     id="rect1119" />
  <path
     d="m 2694.105,-1767.1549 h 1020.748 v 449.0048 H 2694.105 Z"
     transform="scale(1,-1)"
     style="fill:#005b9c;fill-opacity:1;stroke:none;stroke-width:87.3988;stroke-miterlimit:4;stroke-dasharray:none;stroke-opacity:1;paint-order:markers stroke fill;stop-color:#000000"
     id="rect1121" />
  <path
     d="M 530.16602 1458.5957 L 530.16602 1568.875 C 530.16602 1575.3408 531.36501 1580.2508 533.75977 1583.6035 C 536.15453 1586.9562 540.16528 1588.6309 545.79297 1588.6309 C 547.82852 1588.6309 549.50515 1588.5129 550.82227 1588.2734 C 552.13939 1588.034 553.27647 1587.6742 554.23438 1587.1953 L 552.25781 1576.0586 C 551.41965 1576.2981 550.76216 1576.418 550.2832 1576.418 L 549.02539 1576.418 C 547.94775 1576.418 546.99051 1575.9403 546.15234 1574.9824 C 545.31418 1574.0245 544.89453 1572.3479 544.89453 1569.9531 L 544.89453 1458.5957 L 530.16602 1458.5957 z M 720.54102 1458.5957 L 720.54102 1492.1836 L 721.25977 1507.0898 C 717.42815 1503.9767 713.65719 1501.5226 709.94531 1499.7266 C 706.23343 1497.9305 701.86298 1497.0312 696.83398 1497.0312 C 691.80499 1497.0312 687.01489 1498.1104 682.46484 1500.2656 C 677.9148 1502.4209 673.90404 1505.4744 670.43164 1509.4258 C 666.95924 1513.3772 664.14552 1518.2253 661.99023 1523.9727 C 659.95469 1529.6003 658.93555 1535.9472 658.93555 1543.0117 C 658.93555 1557.6198 662.16891 1568.8746 668.63477 1576.7773 C 675.22036 1584.68 684.02122 1588.6309 695.03711 1588.6309 C 700.18584 1588.6309 704.97594 1587.4338 709.40625 1585.0391 C 713.9563 1582.5245 717.96705 1579.5909 721.43945 1576.2383 L 721.97852 1576.2383 L 723.23633 1586.4766 L 735.44922 1586.4766 L 735.44922 1458.5957 L 720.54102 1458.5957 z M 103.63477 1468.6543 L 103.63477 1586.4766 L 118.54102 1586.4766 L 118.54102 1549.1191 L 138.83594 1525.2305 L 174.03906 1586.4766 L 190.74414 1586.4766 L 148.17578 1513.5566 L 184.99609 1468.6543 L 168.11328 1468.6543 L 119.08008 1527.7441 L 118.54102 1527.7441 L 118.54102 1468.6543 L 103.63477 1468.6543 z M 249.31836 1497.0312 C 243.21173 1497.0312 237.82213 1498.4681 233.15234 1501.3418 C 228.6023 1504.0958 224.23185 1507.569 220.04102 1511.7598 L 219.50195 1511.7598 L 218.24609 1499.1875 L 206.0332 1499.1875 L 206.0332 1586.4766 L 220.75977 1586.4766 L 220.75977 1523.2539 C 225.19007 1518.8236 229.14088 1515.4723 232.61328 1513.1973 C 236.08569 1510.9223 240.0984 1509.7852 244.64844 1509.7852 C 250.39586 1509.7852 254.58647 1511.6397 257.2207 1515.3516 C 259.85494 1518.9437 261.17188 1524.8709 261.17188 1533.1328 L 261.17188 1586.4766 L 275.89844 1586.4766 L 275.89844 1531.1582 C 275.89844 1519.9028 273.74416 1511.3997 269.43359 1505.6523 C 265.24276 1499.9049 258.53819 1497.0312 249.31836 1497.0312 z M 338.20117 1497.0312 C 332.81297 1497.0312 327.66317 1498.0504 322.75391 1500.0859 C 317.96439 1502.1215 313.71383 1505.1151 310.00195 1509.0664 C 306.29007 1513.0178 303.2965 1517.8659 301.02148 1523.6133 C 298.8662 1529.2409 297.78906 1535.7077 297.78906 1543.0117 C 297.78906 1550.1961 298.8662 1556.6608 301.02148 1562.4082 C 303.2965 1568.0359 306.29007 1572.8259 310.00195 1576.7773 C 313.71383 1580.6089 317.96439 1583.5426 322.75391 1585.5781 C 327.66317 1587.6137 332.81297 1588.6309 338.20117 1588.6309 C 343.58939 1588.6309 348.67728 1587.6137 353.4668 1585.5781 C 358.37606 1583.5426 362.68656 1580.6089 366.39844 1576.7773 C 370.11032 1572.8259 373.04393 1568.0359 375.19922 1562.4082 C 377.47424 1556.6608 378.61133 1550.1961 378.61133 1543.0117 C 378.61133 1535.7077 377.47424 1529.2409 375.19922 1523.6133 C 373.04393 1517.8659 370.11032 1513.0178 366.39844 1509.0664 C 362.68656 1505.1151 358.37606 1502.1215 353.4668 1500.0859 C 348.67728 1498.0504 343.58939 1497.0312 338.20117 1497.0312 z M 608.80859 1497.0312 C 603.7796 1497.0312 598.9315 1498.1104 594.26172 1500.2656 C 589.59193 1502.3012 585.40133 1505.2948 581.68945 1509.2461 C 578.09731 1513.1975 575.1637 1518.0456 572.88867 1523.793 C 570.73339 1529.4206 569.6543 1535.8275 569.6543 1543.0117 C 569.6543 1550.1961 570.73339 1556.6028 572.88867 1562.2305 C 575.04396 1567.8581 577.97757 1572.6463 581.68945 1576.5977 C 585.52107 1580.4293 589.95147 1583.4229 594.98047 1585.5781 C 600.1292 1587.6137 605.63675 1588.6309 611.50391 1588.6309 C 617.49081 1588.6309 622.8185 1587.7336 627.48828 1585.9375 C 632.15806 1584.1414 636.40861 1582.0471 640.24023 1579.6523 L 635.03125 1569.9531 C 631.79832 1571.9887 628.38706 1573.6653 624.79492 1574.9824 C 621.32252 1576.1798 617.48965 1576.7773 613.29883 1576.7773 C 604.91717 1576.7773 598.09269 1574.0836 592.82422 1568.6953 C 587.67549 1563.1874 584.80181 1555.7634 584.20312 1546.4238 L 643.11523 1546.4238 C 643.35471 1545.3462 643.47266 1544.0892 643.47266 1542.6523 C 643.5924 1541.0957 643.65234 1539.539 643.65234 1537.9824 C 643.65234 1531.756 642.87495 1526.1286 641.31836 1521.0996 C 639.76177 1516.0706 637.48564 1511.7601 634.49219 1508.168 C 631.61848 1504.5758 627.96742 1501.822 623.53711 1499.9062 C 619.22654 1497.9905 614.31655 1497.0312 608.80859 1497.0312 z M 794.30469 1497.0312 C 789.87438 1497.0312 785.62383 1497.7507 781.55273 1499.1875 C 777.60138 1500.6244 774.12821 1502.7206 771.13477 1505.4746 C 768.14131 1508.1088 765.74724 1511.3402 763.95117 1515.1719 C 762.27484 1519.0035 761.43555 1523.314 761.43555 1528.1035 C 761.43555 1533.372 762.57264 1538.0422 764.84766 1542.1133 C 767.24242 1546.0646 769.87824 1549.238 772.75195 1551.6328 L 772.75195 1552.3516 C 770.47693 1553.9082 768.3207 1556.0624 766.28516 1558.8164 C 764.24961 1561.5703 763.23242 1564.8038 763.23242 1568.5156 C 763.23242 1571.988 763.94987 1574.9216 765.38672 1577.3164 C 766.94331 1579.5914 768.79979 1581.3879 770.95508 1582.7051 L 770.95508 1583.4238 C 767.00372 1586.1778 763.89025 1589.2313 761.61523 1592.584 C 759.34021 1595.9367 758.20312 1599.4678 758.20312 1603.1797 C 758.20312 1607.0113 759.04046 1610.3645 760.7168 1613.2383 C 762.51287 1616.112 764.96884 1618.566 768.08203 1620.6016 C 771.31496 1622.6371 775.14587 1624.1339 779.57617 1625.0918 C 784.00647 1626.1695 788.91647 1626.709 794.30469 1626.709 C 801.12975 1626.709 807.23484 1625.8697 812.62305 1624.1934 C 818.13099 1622.6368 822.80119 1620.4824 826.63281 1617.7285 C 830.46443 1614.9745 833.39805 1611.7412 835.43359 1608.0293 C 837.46914 1604.4372 838.48828 1600.6063 838.48828 1596.5352 C 838.48828 1589.2312 835.91241 1583.9614 830.76367 1580.7285 C 825.73468 1577.3758 818.13281 1575.6992 807.95508 1575.6992 L 791.07031 1575.6992 C 785.08341 1575.6992 781.0127 1574.8019 778.85742 1573.0059 C 776.70214 1571.2098 775.625 1568.9356 775.625 1566.1816 C 775.625 1563.7868 776.16454 1561.8105 777.24219 1560.2539 C 778.31983 1558.5776 779.63677 1557.0808 781.19336 1555.7637 C 783.22891 1556.7216 785.38318 1557.499 787.6582 1558.0977 C 789.93322 1558.5767 792.1494 1558.8164 794.30469 1558.8164 C 798.73499 1558.8164 802.86565 1558.099 806.69727 1556.6621 C 810.64862 1555.2252 814.05988 1553.2489 816.93359 1550.7344 C 819.80731 1548.1002 822.08343 1544.9267 823.75977 1541.2148 C 825.43609 1537.3832 826.27344 1533.1327 826.27344 1528.4629 C 826.27344 1524.751 825.55599 1521.3398 824.11914 1518.2266 C 822.80202 1515.1134 821.12539 1512.5375 819.08984 1510.502 L 837.05078 1510.502 L 837.05078 1499.1875 L 806.69727 1499.1875 C 805.02093 1498.5888 803.1045 1498.1092 800.94922 1497.75 C 798.91367 1497.2711 796.69945 1497.0313 794.30469 1497.0312 z M 885.58594 1497.0312 C 880.55694 1497.0312 875.70884 1498.1104 871.03906 1500.2656 C 866.36928 1502.3012 862.17868 1505.2948 858.4668 1509.2461 C 854.87466 1513.1975 851.94104 1518.0456 849.66602 1523.793 C 847.51073 1529.4206 846.43164 1535.8275 846.43164 1543.0117 C 846.43164 1550.1961 847.51073 1556.6028 849.66602 1562.2305 C 851.8213 1567.8581 854.75492 1572.6463 858.4668 1576.5977 C 862.29841 1580.4293 866.72686 1583.4229 871.75586 1585.5781 C 876.90459 1587.6137 882.41409 1588.6309 888.28125 1588.6309 C 894.26815 1588.6309 899.59585 1587.7336 904.26562 1585.9375 C 908.93541 1584.1414 913.18596 1582.0471 917.01758 1579.6523 L 911.80859 1569.9531 C 908.57567 1571.9887 905.16441 1573.6653 901.57227 1574.9824 C 898.09986 1576.1798 894.267 1576.7773 890.07617 1576.7773 C 881.69451 1576.7773 874.87004 1574.0836 869.60156 1568.6953 C 864.45283 1563.1874 861.57916 1555.7634 860.98047 1546.4238 L 919.89062 1546.4238 C 920.1301 1545.3462 920.25 1544.0892 920.25 1542.6523 C 920.36974 1541.0957 920.42969 1539.539 920.42969 1537.9824 C 920.42969 1531.756 919.6523 1526.1286 918.0957 1521.0996 C 916.53911 1516.0706 914.26298 1511.7601 911.26953 1508.168 C 908.39582 1504.5758 904.74476 1501.822 900.31445 1499.9062 C 896.00389 1497.9905 891.09389 1497.0312 885.58594 1497.0312 z M 390.65625 1499.1875 L 414.9043 1586.4766 L 432.14648 1586.4766 L 444.35938 1539.7793 C 445.55676 1535.5885 446.6339 1531.4559 447.5918 1527.3848 C 448.5497 1523.194 449.5089 1518.8835 450.4668 1514.4531 L 451.18359 1514.4531 C 452.26123 1518.8835 453.22043 1523.136 454.05859 1527.207 C 455.0165 1531.2782 456.03369 1535.4088 457.11133 1539.5996 L 469.68359 1586.4766 L 487.64453 1586.4766 L 510.99414 1499.1875 L 496.98438 1499.1875 L 484.23242 1549.6562 C 483.27452 1553.8471 482.37723 1557.9198 481.53906 1561.8711 C 480.7009 1565.8224 479.80165 1569.8332 478.84375 1573.9043 L 478.125 1573.9043 C 477.16709 1569.8332 476.14991 1565.8224 475.07227 1561.8711 C 474.11437 1557.9198 473.09718 1553.8471 472.01953 1549.6562 L 458.36914 1499.1875 L 444 1499.1875 L 430.5293 1549.6562 C 429.45165 1553.7273 428.43446 1557.8 427.47656 1561.8711 C 426.51866 1565.8224 425.56142 1569.8332 424.60352 1573.9043 L 423.88477 1573.9043 C 423.0466 1569.8332 422.20731 1565.8224 421.36914 1561.8711 C 420.53097 1557.9198 419.63369 1553.8471 418.67578 1549.6562 L 405.74414 1499.1875 L 390.65625 1499.1875 z M 794.30469 1507.8086 C 799.45342 1507.8086 803.82388 1509.6051 807.41602 1513.1973 C 811.00816 1516.6697 812.80273 1521.6376 812.80273 1528.1035 C 812.80273 1531.3364 812.32509 1534.2701 811.36719 1536.9043 C 810.40929 1539.4188 809.0324 1541.575 807.23633 1543.3711 C 805.56 1545.1672 803.58362 1546.5441 801.30859 1547.502 C 799.15331 1548.4599 796.81919 1548.9395 794.30469 1548.9395 C 791.79019 1548.9395 789.39416 1548.4599 787.11914 1547.502 C 784.96385 1546.5441 782.98943 1545.1672 781.19336 1543.3711 C 779.51703 1541.575 778.20009 1539.4188 777.24219 1536.9043 C 776.28428 1534.2701 775.80469 1531.3364 775.80469 1528.1035 C 775.80469 1521.6376 777.60122 1516.6697 781.19336 1513.1973 C 784.7855 1509.6051 789.15595 1507.8086 794.30469 1507.8086 z M 609.16797 1508.707 C 615.99304 1508.707 621.26274 1511.0411 624.97461 1515.7109 C 628.80623 1520.261 630.7207 1526.9675 630.7207 1535.8281 L 584.02344 1535.8281 C 584.50239 1531.5175 585.45963 1527.6847 586.89648 1524.332 C 588.45308 1520.9794 590.36951 1518.1656 592.64453 1515.8906 C 594.91956 1513.4959 597.43353 1511.6994 600.1875 1510.502 C 603.06121 1509.3046 606.05478 1508.707 609.16797 1508.707 z M 885.94531 1508.707 C 892.77038 1508.707 898.04008 1511.0411 901.75195 1515.7109 C 905.58357 1520.261 907.49805 1526.9675 907.49805 1535.8281 L 860.80078 1535.8281 C 861.27973 1531.5175 862.23697 1527.6847 863.67383 1524.332 C 865.23042 1520.9794 867.14685 1518.1656 869.42188 1515.8906 C 871.6969 1513.4959 874.21087 1511.6994 876.96484 1510.502 C 879.83856 1509.3046 882.83213 1508.707 885.94531 1508.707 z M 338.20117 1509.2461 C 341.91305 1509.2461 345.32431 1510.0834 348.4375 1511.7598 C 351.55069 1513.3164 354.18456 1515.5925 356.33984 1518.5859 C 358.61486 1521.5794 360.35145 1525.1705 361.54883 1529.3613 C 362.74621 1533.4325 363.3457 1537.9828 363.3457 1543.0117 C 363.3457 1548.0407 362.74621 1552.591 361.54883 1556.6621 C 360.35145 1560.7332 358.61486 1564.2643 356.33984 1567.2578 C 354.18456 1570.1315 351.55069 1572.4077 348.4375 1574.084 C 345.32431 1575.6405 341.91305 1576.418 338.20117 1576.418 C 334.4893 1576.418 331.07608 1575.6405 327.96289 1574.084 C 324.8497 1572.4077 322.15588 1570.1315 319.88086 1567.2578 C 317.72558 1564.2643 316.04894 1560.7332 314.85156 1556.6621 C 313.65418 1552.591 313.05469 1548.0407 313.05469 1543.0117 C 313.05469 1537.9828 313.65418 1533.4325 314.85156 1529.3613 C 316.04894 1525.1705 317.72558 1521.5794 319.88086 1518.5859 C 322.15588 1515.5925 324.8497 1513.3164 327.96289 1511.7598 C 331.07608 1510.0834 334.4893 1509.2461 338.20117 1509.2461 z M 699.34766 1509.4258 C 702.9398 1509.4258 706.41297 1510.1432 709.76562 1511.5801 C 713.23803 1512.8972 716.82914 1515.2333 720.54102 1518.5859 L 720.54102 1564.2051 C 716.94888 1568.2761 713.35776 1571.3297 709.76562 1573.3652 C 706.17348 1575.281 702.34062 1576.2383 698.26953 1576.2383 C 690.6063 1576.2383 684.68107 1573.3046 680.49023 1567.4375 C 676.29941 1561.5704 674.20312 1553.369 674.20312 1542.832 C 674.20312 1537.803 674.86257 1533.2527 676.17969 1529.1816 C 677.4968 1525.1106 679.29138 1521.6374 681.56641 1518.7637 C 683.84143 1515.7702 686.4753 1513.4961 689.46875 1511.9395 C 692.58194 1510.2631 695.87526 1509.4258 699.34766 1509.4258 z M 780.11523 1586.4766 C 782.03104 1587.0753 783.94747 1587.435 785.86328 1587.5547 C 787.89883 1587.7942 789.75335 1587.9141 791.42969 1587.9141 L 806.51758 1587.9141 C 812.265 1587.9141 816.63545 1588.6914 819.62891 1590.248 C 822.62235 1591.8046 824.11914 1594.6184 824.11914 1598.6895 C 824.11914 1600.9645 823.4597 1603.1806 822.14258 1605.3359 C 820.82546 1607.4912 818.97093 1609.3457 816.57617 1610.9023 C 814.18141 1612.5787 811.2478 1613.8956 807.77539 1614.8535 C 804.42273 1615.9312 800.64982 1616.4707 796.45898 1616.4707 C 788.55628 1616.4707 782.32934 1615.0938 777.7793 1612.3398 C 773.34899 1609.5859 771.13477 1605.8749 771.13477 1601.2051 C 771.13477 1598.6906 771.85416 1596.1747 773.29102 1593.6602 C 774.72788 1591.1457 777.00205 1588.7516 780.11523 1586.4766 z "
     style="font-style:normal;font-variant:normal;font-weight:normal;font-stretch:normal;font-size:179.607px;line-height:1.25;font-family:'Source Sans Pro';-inkscape-font-specification:'Source Sans Pro Normal';font-variant-ligatures:normal;font-variant-caps:normal;font-variant-numeric:normal;font-variant-east-asian:normal;text-align:center;text-anchor:middle;fill:#ffffff;stroke-width:2.92838"
     id="path925" />
  <path
     d="M 1775.1406 1479.4297 C 1772.267 1479.4297 1769.8129 1480.3289 1767.7773 1482.125 C 1765.8615 1483.8013 1764.9023 1486.0756 1764.9023 1488.9492 C 1764.9023 1491.7032 1765.8615 1493.9793 1767.7773 1495.7754 C 1769.8129 1497.5715 1772.267 1498.4688 1775.1406 1498.4688 C 1778.0144 1498.4687 1780.4104 1497.5715 1782.3262 1495.7754 C 1784.3617 1493.9793 1785.3789 1491.7032 1785.3789 1488.9492 C 1785.3789 1486.0756 1784.3617 1483.8013 1782.3262 1482.125 C 1780.4104 1480.3289 1778.0144 1479.4297 1775.1406 1479.4297 z M 1903.1816 1479.4297 C 1900.3079 1479.4297 1897.8519 1480.3289 1895.8164 1482.125 C 1893.9006 1483.8013 1892.9434 1486.0756 1892.9434 1488.9492 C 1892.9434 1491.7032 1893.9006 1493.9793 1895.8164 1495.7754 C 1897.8519 1497.5715 1900.3079 1498.4688 1903.1816 1498.4688 C 1906.0554 1498.4687 1908.4494 1497.5715 1910.3652 1495.7754 C 1912.4008 1493.9793 1913.418 1491.7032 1913.418 1488.9492 C 1913.418 1486.0756 1912.4008 1483.8013 1910.3652 1482.125 C 1908.4494 1480.3289 1906.0554 1479.4297 1903.1816 1479.4297 z M 2008.0684 1479.4297 C 2005.1946 1479.4297 2002.7406 1480.3289 2000.7051 1482.125 C 1998.7893 1483.8013 1997.832 1486.0756 1997.832 1488.9492 C 1997.832 1491.7032 1998.7893 1493.9793 2000.7051 1495.7754 C 2002.7406 1497.5715 2005.1946 1498.4688 2008.0684 1498.4688 C 2010.942 1498.4687 2013.3381 1497.5715 2015.2539 1495.7754 C 2017.2895 1493.9793 2018.3066 1491.7032 2018.3066 1488.9492 C 2018.3066 1486.0756 2017.2895 1483.8013 2015.2539 1482.125 C 2013.3381 1480.3289 2010.942 1479.4297 2008.0684 1479.4297 z M 1554.7402 1485.8965 L 1514.8672 1603.7188 L 1530.1348 1603.7188 L 1541.4492 1567.7969 L 1584.375 1567.7969 L 1595.5117 1603.7188 L 1611.4961 1603.7188 L 1571.623 1485.8965 L 1554.7402 1485.8965 z M 1711.9395 1492.0039 L 1710.1426 1516.4297 L 1696.4922 1517.3281 L 1696.4922 1528.4629 L 1709.4238 1528.4629 L 1709.4238 1576.7773 C 1709.4238 1581.0879 1709.8434 1585.0387 1710.6816 1588.6309 C 1711.5198 1592.223 1712.8967 1595.2765 1714.8125 1597.791 C 1716.8481 1600.3055 1719.422 1602.2819 1722.5352 1603.7188 C 1725.7681 1605.1556 1729.7208 1605.873 1734.3906 1605.873 C 1737.1446 1605.873 1739.8984 1605.5153 1742.6523 1604.7969 C 1745.5261 1604.1982 1748.16 1603.4788 1750.5547 1602.6406 L 1747.6816 1591.5059 C 1746.2448 1592.1046 1744.6281 1592.6422 1742.832 1593.1211 C 1741.036 1593.6 1739.3593 1593.8398 1737.8027 1593.8398 C 1732.7737 1593.8398 1729.2406 1592.403 1727.2051 1589.5293 C 1725.2893 1586.5358 1724.332 1582.3452 1724.332 1576.957 L 1724.332 1528.4629 L 1747.8594 1528.4629 L 1747.8594 1516.4297 L 1724.332 1516.4297 L 1724.332 1492.0039 L 1711.9395 1492.0039 z M 1944.8672 1492.0039 L 1943.0703 1516.4297 L 1929.4199 1517.3281 L 1929.4199 1528.4629 L 1942.3516 1528.4629 L 1942.3516 1576.7773 C 1942.3516 1581.0879 1942.7712 1585.0387 1943.6094 1588.6309 C 1944.4475 1592.223 1945.8244 1595.2765 1947.7402 1597.791 C 1949.7758 1600.3055 1952.3498 1602.2819 1955.4629 1603.7188 C 1958.6958 1605.1556 1962.6486 1605.873 1967.3184 1605.873 C 1970.0724 1605.873 1972.8261 1605.5153 1975.5801 1604.7969 C 1978.4538 1604.1982 1981.0877 1603.4788 1983.4824 1602.6406 L 1980.6094 1591.5059 C 1979.1725 1592.1046 1977.5558 1592.6422 1975.7598 1593.1211 C 1973.9637 1593.6 1972.2871 1593.8398 1970.7305 1593.8398 C 1965.7015 1593.8398 1962.1683 1592.403 1960.1328 1589.5293 C 1958.217 1586.5358 1957.2598 1582.3452 1957.2598 1576.957 L 1957.2598 1528.4629 L 1980.7891 1528.4629 L 1980.7891 1516.4297 L 1957.2598 1516.4297 L 1957.2598 1492.0039 L 1944.8672 1492.0039 z M 1562.4629 1498.1094 L 1563.1816 1498.1094 C 1565.0975 1504.9344 1567.0139 1511.641 1568.9297 1518.2266 C 1570.8455 1524.6924 1572.8818 1531.2172 1575.0371 1537.8027 L 1580.6035 1555.7637 L 1545.2207 1555.7637 L 1550.7891 1537.8027 C 1552.9443 1531.2172 1554.9807 1524.6924 1556.8965 1518.2266 C 1558.8123 1511.641 1560.6668 1504.9344 1562.4629 1498.1094 z M 1662.4902 1514.2734 C 1656.8625 1514.2734 1651.4749 1515.2926 1646.3262 1517.3281 C 1641.2972 1519.3637 1636.8668 1522.3573 1633.0352 1526.3086 C 1629.2036 1530.2599 1626.15 1535.108 1623.875 1540.8555 C 1621.5999 1546.4831 1620.4629 1552.9499 1620.4629 1560.2539 C 1620.4629 1567.4382 1621.48 1573.9029 1623.5156 1579.6504 C 1625.6709 1585.2781 1628.5446 1590.0682 1632.1367 1594.0195 C 1635.8486 1597.8512 1640.219 1600.7848 1645.248 1602.8203 C 1650.277 1604.8558 1655.6667 1605.873 1661.4141 1605.873 C 1666.6825 1605.873 1671.7105 1604.9158 1676.5 1603 C 1681.2895 1600.9645 1685.66 1598.2107 1689.6113 1594.7383 L 1683.1465 1584.8594 C 1680.3925 1587.2541 1677.279 1589.3504 1673.8066 1591.1465 C 1670.454 1592.8228 1666.741 1593.6602 1662.6699 1593.6602 C 1658.7186 1593.6602 1655.0675 1592.8828 1651.7148 1591.3262 C 1648.3622 1589.6498 1645.4885 1587.3737 1643.0938 1584.5 C 1640.8187 1581.5065 1639.0222 1577.9754 1637.7051 1573.9043 C 1636.3879 1569.8332 1635.7285 1565.2829 1635.7285 1560.2539 C 1635.7285 1555.2249 1636.3879 1550.6746 1637.7051 1546.6035 C 1639.1419 1542.4126 1641.0584 1538.8196 1643.4531 1535.8262 C 1645.8479 1532.8327 1648.7216 1530.5586 1652.0742 1529.002 C 1655.4269 1527.3256 1659.078 1526.4883 1663.0293 1526.4883 C 1666.5017 1526.4883 1669.6151 1527.2057 1672.3691 1528.6426 C 1675.2428 1530.0794 1677.9366 1531.9359 1680.4512 1534.2109 L 1687.9941 1524.5117 C 1684.8809 1521.7578 1681.2898 1519.3637 1677.2188 1517.3281 C 1673.1476 1515.2926 1668.2376 1514.2734 1662.4902 1514.2734 z M 2077.4141 1514.2734 C 2072.3851 1514.2734 2067.535 1515.3525 2062.8652 1517.5078 C 2058.1955 1519.5434 2054.0049 1522.5369 2050.293 1526.4883 C 2046.7008 1530.4396 2043.7672 1535.2877 2041.4922 1541.0352 C 2039.3369 1546.6628 2038.2598 1553.0696 2038.2598 1560.2539 C 2038.2598 1567.4382 2039.3369 1573.843 2041.4922 1579.4707 C 2043.6475 1585.0984 2046.5811 1589.8885 2050.293 1593.8398 C 2054.1246 1597.6714 2058.555 1600.665 2063.584 1602.8203 C 2068.7327 1604.8558 2074.2403 1605.873 2080.1074 1605.873 C 2086.0944 1605.873 2091.424 1604.9758 2096.0938 1603.1797 C 2100.7636 1601.3836 2105.0141 1599.2874 2108.8457 1596.8926 L 2103.6367 1587.1953 C 2100.4038 1589.2308 2096.9906 1590.9075 2093.3984 1592.2246 C 2089.926 1593.4219 2086.0951 1594.0195 2081.9043 1594.0195 C 2073.5226 1594.0195 2066.6982 1591.3257 2061.4297 1585.9375 C 2056.281 1580.4296 2053.4073 1573.0056 2052.8086 1563.666 L 2111.7188 1563.666 C 2111.9583 1562.5884 2112.0781 1561.3314 2112.0781 1559.8945 C 2112.1979 1558.3379 2112.2578 1556.7812 2112.2578 1555.2246 C 2112.2578 1548.9983 2111.4785 1543.3708 2109.9219 1538.3418 C 2108.3653 1533.3128 2106.0911 1529.0023 2103.0977 1525.4102 C 2100.2239 1521.818 2096.5728 1519.0642 2092.1426 1517.1484 C 2087.832 1515.2326 2082.922 1514.2734 2077.4141 1514.2734 z M 2158.4336 1514.2734 C 2153.7638 1514.2734 2149.5732 1514.9329 2145.8613 1516.25 C 2142.1494 1517.4474 2138.976 1519.184 2136.3418 1521.459 C 2133.8273 1523.6143 2131.8509 1526.2481 2130.4141 1529.3613 C 2129.0969 1532.3548 2128.4395 1535.5881 2128.4395 1539.0605 C 2128.4395 1542.7724 2129.2168 1545.9458 2130.7734 1548.5801 C 2132.33 1551.2143 2134.3064 1553.5485 2136.7012 1555.584 C 2139.2157 1557.4998 2142.0294 1559.1764 2145.1426 1560.6133 C 2148.2558 1561.9304 2151.3692 1563.1274 2154.4824 1564.2051 C 2156.8772 1565.1629 2159.2712 1566.1202 2161.666 1567.0781 C 2164.0607 1568.036 2166.1571 1569.1731 2167.9531 1570.4902 C 2169.8689 1571.6876 2171.4256 1573.1264 2172.623 1574.8027 C 2173.8204 1576.4791 2174.418 1578.4535 2174.418 1580.7285 C 2174.418 1584.5601 2172.9812 1587.7935 2170.1074 1590.4277 C 2167.2337 1593.0619 2162.9232 1594.3789 2157.1758 1594.3789 C 2151.9073 1594.3789 2147.2371 1593.4217 2143.166 1591.5059 C 2139.2146 1589.5901 2135.3238 1587.0741 2131.4922 1583.9609 L 2124.1289 1593.8398 C 2128.3198 1597.3122 2133.2278 1600.1859 2138.8555 1602.4609 C 2144.4831 1604.7359 2150.4103 1605.873 2156.6367 1605.873 C 2161.7855 1605.873 2166.3358 1605.1556 2170.2871 1603.7188 C 2174.3582 1602.4016 2177.7115 1600.5451 2180.3457 1598.1504 C 2183.0997 1595.7556 2185.1341 1593.0018 2186.4512 1589.8887 C 2187.888 1586.7755 2188.6074 1583.4222 2188.6074 1579.8301 C 2188.6074 1575.7589 2187.7701 1572.2877 2186.0938 1569.4141 C 2184.5371 1566.5403 2182.5008 1564.1443 2179.9863 1562.2285 C 2177.4718 1560.193 2174.5981 1558.5183 2171.3652 1557.2012 C 2168.252 1555.884 2165.1386 1554.6251 2162.0254 1553.4277 C 2159.5109 1552.4699 2157.0568 1551.5726 2154.6621 1550.7344 C 2152.3871 1549.7765 2150.3508 1548.7593 2148.5547 1547.6816 C 2146.7586 1546.4843 2145.3218 1545.1673 2144.2441 1543.7305 C 2143.1665 1542.1739 2142.6289 1540.3773 2142.6289 1538.3418 C 2142.6289 1534.9891 2143.8859 1532.0555 2146.4004 1529.541 C 2149.0346 1527.0265 2153.1053 1525.7695 2158.6133 1525.7695 C 2162.4449 1525.7695 2165.9761 1526.487 2169.209 1527.9238 C 2172.4419 1529.3606 2175.5554 1531.2171 2178.5488 1533.4922 L 2185.5547 1524.1523 C 2182.202 1521.3983 2178.1893 1519.0642 2173.5195 1517.1484 C 2168.9695 1515.2326 2163.9415 1514.2734 2158.4336 1514.2734 z M 1767.5977 1516.4297 L 1767.5977 1603.7188 L 1782.3262 1603.7188 L 1782.3262 1516.4297 L 1767.5977 1516.4297 z M 1799.2246 1516.4297 L 1830.6562 1603.7188 L 1847.8984 1603.7188 L 1878.791 1516.4297 L 1864.2422 1516.4297 L 1847.7188 1566.002 C 1846.4016 1570.3126 1845.0847 1574.6231 1843.7676 1578.9336 C 1842.4505 1583.2442 1841.1335 1587.4947 1839.8164 1591.6855 L 1839.0977 1591.6855 C 1837.7805 1587.4947 1836.4037 1583.2442 1834.9668 1578.9336 C 1833.6497 1574.6231 1832.3327 1570.3126 1831.0156 1566.002 L 1814.4922 1516.4297 L 1799.2246 1516.4297 z M 1895.6367 1516.4297 L 1895.6367 1603.7188 L 1910.3652 1603.7188 L 1910.3652 1516.4297 L 1895.6367 1516.4297 z M 2000.5254 1516.4297 L 2000.5254 1603.7188 L 2015.2539 1603.7188 L 2015.2539 1516.4297 L 2000.5254 1516.4297 z M 2077.7734 1525.9492 C 2084.5985 1525.9492 2089.8663 1528.2834 2093.5781 1532.9531 C 2097.4098 1537.5032 2099.3262 1544.2078 2099.3262 1553.0684 L 2052.6289 1553.0684 C 2053.1079 1548.7578 2054.0652 1544.9269 2055.502 1541.5742 C 2057.0586 1538.2216 2058.9749 1535.4078 2061.25 1533.1328 C 2063.525 1530.738 2066.039 1528.9415 2068.793 1527.7441 C 2071.6666 1526.5468 2074.6602 1525.9492 2077.7734 1525.9492 z "
     style="font-style:normal;font-variant:normal;font-weight:normal;font-stretch:normal;font-size:179.607px;line-height:1.25;font-family:'Source Sans Pro';-inkscape-font-specification:'Source Sans Pro Normal';font-variant-ligatures:normal;font-variant-caps:normal;font-variant-numeric:normal;font-variant-east-asian:normal;text-align:center;text-anchor:middle;fill:#ffffff;stroke-width:2.92838"
     id="path944" />
  <path
     d="M 3155.0605 1477.6348 L 3155.0605 1511.2207 L 3155.7793 1526.1289 C 3151.9477 1523.0158 3148.1748 1520.5617 3144.4629 1518.7656 C 3140.751 1516.9696 3136.3806 1516.0703 3131.3516 1516.0703 C 3126.3226 1516.0703 3121.5344 1517.1494 3116.9844 1519.3047 C 3112.4343 1521.46 3108.4216 1524.5116 3104.9492 1528.4629 C 3101.4768 1532.4143 3098.6631 1537.2643 3096.5078 1543.0117 C 3094.4723 1548.6394 3093.4551 1554.9862 3093.4551 1562.0508 C 3093.4551 1576.6588 3096.6885 1587.9137 3103.1543 1595.8164 C 3109.7399 1603.7191 3118.5407 1607.6699 3129.5566 1607.6699 C 3134.7054 1607.6699 3139.4936 1606.4729 3143.9238 1604.0781 C 3148.4739 1601.5636 3152.4866 1598.63 3155.959 1595.2773 L 3156.498 1595.2773 L 3157.7539 1605.5156 L 3169.9668 1605.5156 L 3169.9668 1477.6348 L 3155.0605 1477.6348 z M 3063.084 1481.2266 C 3060.2103 1481.2266 3057.7563 1482.1258 3055.7207 1483.9219 C 3053.8049 1485.5982 3052.8477 1487.8724 3052.8477 1490.7461 C 3052.8477 1493.5 3053.8049 1495.7762 3055.7207 1497.5723 C 3057.7563 1499.3683 3060.2103 1500.2656 3063.084 1500.2656 C 3065.9577 1500.2656 3068.3537 1499.3683 3070.2695 1497.5723 C 3072.3051 1495.7762 3073.3223 1493.5 3073.3223 1490.7461 C 3073.3223 1487.8724 3072.3051 1485.5982 3070.2695 1483.9219 C 3068.3537 1482.1258 3065.9577 1481.2266 3063.084 1481.2266 z M 2880.1777 1487.6934 L 2880.1777 1605.5156 L 2949.8652 1605.5156 L 2949.8652 1592.7637 L 2895.084 1592.7637 L 2895.084 1550.0156 L 2939.8066 1550.0156 L 2939.8066 1537.2637 L 2895.084 1537.2637 L 2895.084 1500.2656 L 2948.0684 1500.2656 L 2948.0684 1487.6934 L 2880.1777 1487.6934 z M 3232.0547 1516.0703 C 3227.0257 1516.0703 3222.1775 1517.1494 3217.5078 1519.3047 C 3212.838 1521.3402 3208.6474 1524.3319 3204.9355 1528.2832 C 3201.3434 1532.2346 3198.4098 1537.0846 3196.1348 1542.832 C 3193.9795 1548.4597 3192.9004 1554.8665 3192.9004 1562.0508 C 3192.9004 1569.2351 3193.9795 1575.6399 3196.1348 1581.2676 C 3198.2901 1586.8952 3201.2237 1591.6853 3204.9355 1595.6367 C 3208.7671 1599.4683 3213.1976 1602.4619 3218.2266 1604.6172 C 3223.3753 1606.6527 3228.8829 1607.6699 3234.75 1607.6699 C 3240.7369 1607.6699 3246.0646 1606.7726 3250.7344 1604.9766 C 3255.4041 1603.1805 3259.6547 1601.0842 3263.4863 1598.6895 L 3258.2773 1588.9922 C 3255.0444 1591.0277 3251.6331 1592.7024 3248.041 1594.0195 C 3244.5686 1595.2169 3240.7358 1595.8164 3236.5449 1595.8164 C 3228.1633 1595.8164 3221.3388 1593.1226 3216.0703 1587.7344 C 3210.9216 1582.2264 3208.0479 1574.8024 3207.4492 1565.4629 L 3266.3613 1565.4629 C 3266.6008 1564.3852 3266.7207 1563.1283 3266.7207 1561.6914 C 3266.8404 1560.1348 3266.8984 1558.5781 3266.8984 1557.0215 C 3266.8984 1550.7952 3266.1211 1545.1677 3264.5645 1540.1387 C 3263.0079 1535.1097 3260.7337 1530.7992 3257.7402 1527.207 C 3254.8666 1523.6149 3251.2135 1520.8611 3246.7832 1518.9453 C 3242.4727 1517.0295 3237.5627 1516.0703 3232.0547 1516.0703 z M 3331.7539 1516.0703 C 3325.6473 1516.0703 3320.2596 1517.5072 3315.5898 1520.3809 C 3311.0398 1523.1349 3306.6694 1526.608 3302.4785 1530.7988 L 3301.9395 1530.7988 L 3300.6816 1518.2266 L 3288.4688 1518.2266 L 3288.4688 1605.5156 L 3303.1973 1605.5156 L 3303.1973 1542.293 C 3307.6276 1537.8626 3311.5784 1534.5113 3315.0508 1532.2363 C 3318.5232 1529.9613 3322.5339 1528.8223 3327.084 1528.8223 C 3332.8314 1528.8223 3337.022 1530.6788 3339.6562 1534.3906 C 3342.2904 1537.9828 3343.6094 1543.9099 3343.6094 1552.1719 L 3343.6094 1605.5156 L 3358.3359 1605.5156 L 3358.3359 1550.1953 C 3358.3359 1538.9399 3356.1817 1530.4388 3351.8711 1524.6914 C 3347.6803 1518.944 3340.9738 1516.0703 3331.7539 1516.0703 z M 3422.2539 1516.0703 C 3416.6262 1516.0703 3411.2386 1517.0895 3406.0898 1519.125 C 3401.0608 1521.1605 3396.6304 1524.1541 3392.7988 1528.1055 C 3388.9672 1532.0569 3385.9137 1536.9049 3383.6387 1542.6523 C 3381.3637 1548.28 3380.2266 1554.7468 3380.2266 1562.0508 C 3380.2266 1569.2351 3381.2438 1575.6999 3383.2793 1581.4473 C 3385.4346 1587.0749 3388.3083 1591.865 3391.9004 1595.8164 C 3395.6123 1599.648 3399.9827 1602.5817 3405.0117 1604.6172 C 3410.0407 1606.6527 3415.4283 1607.6699 3421.1758 1607.6699 C 3426.4442 1607.6699 3431.4741 1606.7127 3436.2637 1604.7969 C 3441.0531 1602.7613 3445.4236 1600.0076 3449.375 1596.5352 L 3442.9082 1586.6562 C 3440.1543 1589.051 3437.0408 1591.1473 3433.5684 1592.9434 C 3430.2157 1594.6197 3426.5047 1595.457 3422.4336 1595.457 C 3418.4823 1595.457 3414.8292 1594.6796 3411.4766 1593.123 C 3408.1239 1591.4467 3405.2502 1589.1706 3402.8555 1586.2969 C 3400.5804 1583.3034 3398.7859 1579.7722 3397.4688 1575.7012 C 3396.1517 1571.63 3395.4922 1567.0798 3395.4922 1562.0508 C 3395.4922 1557.0218 3396.1517 1552.4715 3397.4688 1548.4004 C 3398.9056 1544.2096 3400.82 1540.6165 3403.2148 1537.623 C 3405.6096 1534.6296 3408.4833 1532.3554 3411.8359 1530.7988 C 3415.1886 1529.1225 3418.8416 1528.2832 3422.793 1528.2832 C 3426.2654 1528.2832 3429.3788 1529.0026 3432.1328 1530.4395 C 3435.0065 1531.8763 3437.7004 1533.7328 3440.2148 1536.0078 L 3447.7578 1526.3086 C 3444.6446 1523.5546 3441.0535 1521.1605 3436.9824 1519.125 C 3432.9113 1517.0895 3428.0013 1516.0703 3422.2539 1516.0703 z M 3497.2559 1516.0703 C 3492.2269 1516.0703 3487.3788 1517.1494 3482.709 1519.3047 C 3478.0393 1521.3402 3473.8487 1524.3319 3470.1367 1528.2832 C 3466.5446 1532.2346 3463.6109 1537.0846 3461.3359 1542.832 C 3459.1807 1548.4597 3458.1016 1554.8665 3458.1016 1562.0508 C 3458.1016 1569.2351 3459.1807 1575.6399 3461.3359 1581.2676 C 3463.4912 1586.8952 3466.4249 1591.6853 3470.1367 1595.6367 C 3473.9684 1599.4683 3478.3987 1602.4619 3483.4277 1604.6172 C 3488.5765 1606.6527 3494.084 1607.6699 3499.9512 1607.6699 C 3505.9381 1607.6699 3511.2658 1606.7726 3515.9355 1604.9766 C 3520.6053 1603.1805 3524.8559 1601.0842 3528.6875 1598.6895 L 3523.4785 1588.9922 C 3520.2456 1591.0277 3516.8343 1592.7024 3513.2422 1594.0195 C 3509.7698 1595.2169 3505.9369 1595.8164 3501.7461 1595.8164 C 3493.3644 1595.8164 3486.54 1593.1226 3481.2715 1587.7344 C 3476.1228 1582.2264 3473.2491 1574.8024 3472.6504 1565.4629 L 3531.5605 1565.4629 C 3531.8 1564.3852 3531.9199 1563.1283 3531.9199 1561.6914 C 3532.0397 1560.1348 3532.0996 1558.5781 3532.0996 1557.0215 C 3532.0996 1550.7952 3531.3222 1545.1677 3529.7656 1540.1387 C 3528.209 1535.1097 3525.9329 1530.7992 3522.9395 1527.207 C 3520.0657 1523.6149 3516.4146 1520.8611 3511.9844 1518.9453 C 3507.6738 1517.0295 3502.7638 1516.0703 3497.2559 1516.0703 z M 2959.1289 1518.2266 L 2990.5605 1605.5156 L 3007.8027 1605.5156 L 3038.6953 1518.2266 L 3024.1465 1518.2266 L 3007.623 1567.7969 C 3006.3059 1572.1074 3004.989 1576.4179 3003.6719 1580.7285 C 3002.3547 1585.039 3001.0378 1589.2916 2999.7207 1593.4824 L 2999.002 1593.4824 C 2997.6848 1589.2916 2996.3079 1585.039 2994.8711 1580.7285 C 2993.554 1576.4179 2992.2371 1572.1074 2990.9199 1567.7969 L 2974.3945 1518.2266 L 2959.1289 1518.2266 z M 3055.541 1518.2266 L 3055.541 1605.5156 L 3070.2695 1605.5156 L 3070.2695 1518.2266 L 3055.541 1518.2266 z M 3232.4141 1527.7461 C 3239.2391 1527.7461 3244.5088 1530.0802 3248.2207 1534.75 C 3252.0523 1539.3 3253.9668 1546.0046 3253.9668 1554.8652 L 3207.2695 1554.8652 C 3207.7485 1550.5546 3208.7077 1546.7238 3210.1445 1543.3711 C 3211.7011 1540.0184 3213.6156 1537.2047 3215.8906 1534.9297 C 3218.1656 1532.5349 3220.6796 1530.7383 3223.4336 1529.541 C 3226.3073 1528.3436 3229.3009 1527.7461 3232.4141 1527.7461 z M 3497.6152 1527.7461 C 3504.4403 1527.7461 3509.71 1530.0802 3513.4219 1534.75 C 3517.2535 1539.3 3519.168 1546.0046 3519.168 1554.8652 L 3472.4707 1554.8652 C 3472.9497 1550.5546 3473.9069 1546.7238 3475.3438 1543.3711 C 3476.9004 1540.0184 3478.8167 1537.2047 3481.0918 1534.9297 C 3483.3668 1532.5349 3485.8808 1530.7383 3488.6348 1529.541 C 3491.5084 1528.3436 3494.502 1527.7461 3497.6152 1527.7461 z M 3133.8672 1528.4629 C 3137.4593 1528.4629 3140.9305 1529.1823 3144.2832 1530.6191 C 3147.7556 1531.9363 3151.3486 1534.2704 3155.0605 1537.623 L 3155.0605 1583.2441 C 3151.4683 1587.3152 3147.8753 1590.3688 3144.2832 1592.4043 C 3140.6911 1594.3201 3136.8601 1595.2773 3132.7891 1595.2773 C 3125.1258 1595.2773 3119.1986 1592.3437 3115.0078 1586.4766 C 3110.817 1580.6094 3108.7227 1572.4081 3108.7227 1561.8711 C 3108.7227 1556.8421 3109.3802 1552.2918 3110.6973 1548.2207 C 3112.0144 1544.1496 3113.8109 1540.6765 3116.0859 1537.8027 C 3118.361 1534.8093 3120.9949 1532.5351 3123.9883 1530.9785 C 3127.1015 1529.3022 3130.3948 1528.4629 3133.8672 1528.4629 z "
     style="font-style:normal;font-variant:normal;font-weight:normal;font-stretch:normal;font-size:179.607px;line-height:1.25;font-family:'Source Sans Pro';-inkscape-font-specification:'Source Sans Pro Normal';font-variant-ligatures:normal;font-variant-caps:normal;font-variant-numeric:normal;font-variant-east-asian:normal;text-align:center;text-anchor:middle;fill:#ffffff;stroke-width:2.92838"
     id="path965" />
  <g
     style="opacity:1"
     id="g1133">
    <path
       d="M 1845.25 322.60742 L 1845.25 562.19727 L 1797.4648 562.19727 L 1857.4258 665.92969 L 1863.0488 656.20312 L 1917.3867 562.19727 L 1869.6035 562.19727 L 1869.6035 322.60742 L 1845.25 322.60742 z M 1845.25 973.39258 L 1845.25 1141.6602 L 498.19727 1141.6602 L 498.19727 1212.9805 L 450.41211 1212.9805 L 510.37305 1316.7129 L 515.99609 1306.9863 L 570.33398 1212.9805 L 522.55078 1212.9805 L 522.55078 1166.0137 L 1845.25 1166.0137 L 1845.25 1212.9805 L 1797.4648 1212.9805 L 1857.4258 1316.7129 L 1863.0488 1306.9863 L 1917.3867 1212.9805 L 1869.6035 1212.9805 L 1869.6035 1166.0137 L 3192.3027 1166.0137 L 3192.3027 1212.9805 L 3144.5176 1212.9805 L 3204.4785 1316.7129 L 3210.1016 1306.9863 L 3264.4395 1212.9805 L 3216.6562 1212.9805 L 3216.6562 1141.6602 L 1869.6035 1141.6602 L 1869.6035 973.39258 L 1845.25 973.39258 z "
       style="color:#000000;font-style:normal;font-variant:normal;font-weight:normal;font-stretch:normal;font-size:medium;line-height:normal;font-family:sans-serif;font-variant-ligatures:normal;font-variant-position:normal;font-variant-caps:normal;font-variant-numeric:normal;font-variant-alternates:normal;font-variant-east-asian:normal;font-feature-settings:normal;font-variation-settings:normal;text-indent:0;text-align:start;text-decoration:none;text-decoration-line:none;text-decoration-style:solid;text-decoration-color:#000000;letter-spacing:normal;word-spacing:normal;text-transform:none;writing-mode:lr-tb;direction:ltr;text-orientation:mixed;dominant-baseline:auto;baseline-shift:baseline;text-anchor:start;white-space:normal;shape-padding:0;shape-margin:0;inline-size:0;clip-rule:nonzero;display:inline;overflow:visible;visibility:visible;isolation:auto;mix-blend-mode:normal;color-interpolation:sRGB;color-interpolation-filters:linearRGB;solid-color:#000000;solid-opacity:1;vector-effect:none;fill:#002b4f;fill-opacity:1;fill-rule:nonzero;stroke:none;stroke-width:24.353;stroke-linecap:butt;stroke-linejoin:miter;stroke-miterlimit:4;stroke-dasharray:none;stroke-dashoffset:0;stroke-opacity:1.0;color-rendering:auto;image-rendering:auto;shape-rendering:auto;text-rendering:auto;enable-background:accumulate;stop-color:#000000;stop-opacity:1;"
       id="path1145" />
    <g
       id="g1135">
      <g
         style="opacity:1"
         id="g1139" />
    </g>
  </g>
  <path
     d="M 5.2786951,-449.00418 H 3709.5739 V -3.0517578e-5 H 5.2786951 Z"
     transform="scale(1,-1)"
     style="fill:#002b4f;fill-opacity:1;stroke:none;stroke-width:166.494;stroke-miterlimit:4;stroke-dasharray:none;stroke-opacity:1;paint-order:markers stroke fill;stop-color:#000000"
     id="rect1125" />
  <path
     d="M 2107.4453 130.99805 L 2107.4453 256.90234 L 2128.1016 256.90234 L 2130.2559 247.38477 L 2130.9746 247.38477 C 2134.447 251.21638 2138.158 254.15 2142.1094 256.18555 C 2146.1804 258.10135 2150.1931 259.05859 2154.1445 259.05859 C 2158.934 259.05859 2163.5443 257.98145 2167.9746 255.82617 C 2172.5247 253.67089 2176.5354 250.55742 2180.0078 246.48633 C 2183.5999 242.2955 2186.4137 237.20565 2188.4492 231.21875 C 2190.6045 225.23185 2191.6816 218.40737 2191.6816 210.74414 C 2191.6816 203.91907 2190.8443 197.75209 2189.168 192.24414 C 2187.6114 186.61645 2185.2753 181.88825 2182.1621 178.05664 C 2179.1687 174.10529 2175.5176 171.05177 2171.207 168.89648 C 2166.8965 166.7412 2162.0464 165.66211 2156.6582 165.66211 C 2152.4673 165.66211 2148.3367 166.56135 2144.2656 168.35742 C 2140.3142 170.03376 2136.6033 172.42783 2133.1309 175.54102 L 2133.8477 161.89062 L 2133.8477 130.99805 L 2107.4453 130.99805 z M 1562.9199 137.64453 C 1556.8133 137.64453 1551.1858 138.54182 1546.0371 140.33789 C 1541.0081 142.13396 1536.6376 144.64793 1532.9258 147.88086 C 1529.2139 150.99405 1526.3403 154.707 1524.3047 159.01758 C 1522.2692 163.2084 1521.252 167.69876 1521.252 172.48828 C 1521.252 176.79885 1521.9094 180.68971 1523.2266 184.16211 C 1524.5437 187.51478 1526.2803 190.50834 1528.4355 193.14258 C 1530.7105 195.65708 1533.2245 197.87326 1535.9785 199.78906 C 1538.8522 201.70488 1541.7859 203.25965 1544.7793 204.45703 L 1560.0469 210.92383 C 1562.5614 212.00147 1564.8356 213.01866 1566.8711 213.97656 C 1569.0264 214.81472 1570.8229 215.77392 1572.2598 216.85156 C 1573.8164 217.80946 1574.9535 218.94655 1575.6719 220.26367 C 1576.5101 221.58079 1576.9297 223.13753 1576.9297 224.93359 C 1576.9297 228.406 1575.5528 231.15977 1572.7988 233.19531 C 1570.1646 235.23086 1566.0939 236.24805 1560.5859 236.24805 C 1555.6767 236.24805 1550.6468 235.11096 1545.498 232.83594 C 1540.469 230.56092 1535.8588 227.6273 1531.668 224.03516 L 1516.582 242.17578 C 1522.569 247.80347 1529.3335 252.05402 1536.877 254.92773 C 1544.5402 257.68171 1552.204 259.05859 1559.8672 259.05859 C 1566.812 259.05859 1573.0369 258.10135 1578.5449 256.18555 C 1584.0529 254.15 1588.6631 251.51418 1592.375 248.28125 C 1596.2066 244.92859 1599.0803 241.09768 1600.9961 236.78711 C 1603.0316 232.35681 1604.0488 227.6866 1604.0488 222.77734 C 1604.0488 214.51542 1601.9545 207.8708 1597.7637 202.8418 C 1593.6926 197.8128 1588.0652 193.86199 1580.8809 190.98828 L 1565.793 184.88086 C 1563.2784 183.80322 1560.9443 182.84598 1558.7891 182.00781 C 1556.6338 181.04991 1554.7173 180.09072 1553.041 179.13281 C 1551.4844 178.05517 1550.2275 176.91808 1549.2695 175.7207 C 1548.4314 174.40358 1548.0117 172.84685 1548.0117 171.05078 C 1548.0117 167.69812 1549.3287 165.1242 1551.9629 163.32812 C 1554.7169 161.41232 1558.3699 160.45508 1562.9199 160.45508 C 1567.5897 160.45508 1571.8403 161.29242 1575.6719 162.96875 C 1579.5035 164.52534 1583.3344 166.79952 1587.166 169.79297 L 1600.6367 153.08984 C 1595.6077 148.06085 1589.7405 144.22994 1583.0352 141.5957 C 1576.4496 138.96146 1569.745 137.64453 1562.9199 137.64453 z M 1886.4961 139.79883 L 1886.4961 256.90234 L 1912.8984 256.90234 L 1912.8984 208.05078 L 1953.3105 208.05078 L 1953.3105 256.90234 L 1979.8906 256.90234 L 1979.8906 139.79883 L 1953.3105 139.79883 L 1953.3105 184.88086 L 1912.8984 184.88086 L 1912.8984 139.79883 L 1886.4961 139.79883 z M 1658.7656 165.66211 C 1653.3774 165.66211 1648.1677 166.7412 1643.1387 168.89648 C 1638.1097 171.05177 1633.6213 174.16329 1629.6699 178.23438 C 1625.8383 182.18573 1622.7249 187.09572 1620.3301 192.96289 C 1617.9353 198.71031 1616.7383 205.17705 1616.7383 212.36133 C 1616.7383 219.78509 1617.8754 226.36977 1620.1504 232.11719 C 1622.4255 237.86461 1625.5989 242.77461 1629.6699 246.8457 C 1633.741 250.79706 1638.5291 253.85058 1644.0371 256.00586 C 1649.545 258.04141 1655.4722 259.05859 1661.8184 259.05859 C 1667.2066 259.05859 1672.6542 258.1613 1678.1621 256.36523 C 1683.7898 254.56916 1688.8796 252.11319 1693.4297 249 L 1684.6289 233.01562 C 1678.1631 236.96698 1671.7563 238.94336 1665.4102 238.94336 C 1659.4232 238.94336 1654.3353 237.44658 1650.1445 234.45312 C 1646.0735 231.33994 1643.4396 226.54984 1642.2422 220.08398 L 1695.584 220.08398 C 1695.8235 219.00634 1696.0633 217.38966 1696.3027 215.23438 C 1696.5422 213.0791 1696.6621 210.80492 1696.6621 208.41016 C 1696.6621 202.30352 1695.8847 196.67412 1694.3281 191.52539 C 1692.7715 186.25692 1690.3755 181.70857 1687.1426 177.87695 C 1684.0294 174.04534 1680.0786 171.05177 1675.2891 168.89648 C 1670.6193 166.7412 1665.1118 165.66211 1658.7656 165.66211 z M 1764.2988 165.66211 C 1759.7488 165.66211 1755.1985 167.09894 1750.6484 169.97266 C 1746.0984 172.84637 1742.2075 177.33672 1738.9746 183.44336 L 1738.2559 183.44336 L 1736.459 167.81836 L 1714.9062 167.81836 L 1714.9062 256.90234 L 1741.3086 256.90234 L 1741.3086 205.17578 C 1743.7033 199.06915 1746.6969 194.81859 1750.2891 192.42383 C 1754.0009 190.02907 1757.5341 188.83203 1760.8867 188.83203 C 1762.8025 188.83203 1764.4772 188.95193 1765.9141 189.19141 C 1767.3509 189.43088 1768.9077 189.79058 1770.584 190.26953 L 1774.8945 167.45898 C 1773.5774 166.8603 1772.0806 166.44065 1770.4043 166.20117 C 1768.8477 165.84195 1766.8133 165.66211 1764.2988 165.66211 z M 1822.9707 165.66211 C 1817.343 165.66211 1811.8954 166.7412 1806.627 168.89648 C 1801.3585 170.93203 1796.6883 173.9256 1792.6172 177.87695 C 1788.6658 181.82831 1785.4924 186.73636 1783.0977 192.60352 C 1780.7029 198.35094 1779.5059 204.93757 1779.5059 212.36133 C 1779.5059 219.78509 1780.7029 226.42971 1783.0977 232.29688 C 1785.4924 238.0443 1788.6658 242.89435 1792.6172 246.8457 C 1796.6883 250.79706 1801.3585 253.85058 1806.627 256.00586 C 1811.8954 258.04141 1817.343 259.05859 1822.9707 259.05859 C 1828.5984 259.05859 1833.988 258.04141 1839.1367 256.00586 C 1844.4052 253.85058 1849.0135 250.79706 1852.9648 246.8457 C 1857.0359 242.89435 1860.2693 238.0443 1862.6641 232.29688 C 1865.0588 226.42971 1866.2559 219.78509 1866.2559 212.36133 C 1866.2559 204.93757 1865.0588 198.35094 1862.6641 192.60352 C 1860.2693 186.73636 1857.0359 181.82831 1852.9648 177.87695 C 1849.0135 173.9256 1844.4052 170.93203 1839.1367 168.89648 C 1833.988 166.7412 1828.5984 165.66211 1822.9707 165.66211 z M 2004.4668 167.81836 L 2004.4668 223.13672 C 2004.4668 234.39209 2006.623 243.19295 2010.9336 249.53906 C 2015.3639 255.88518 2022.4282 259.05859 2032.127 259.05859 C 2038.2336 259.05859 2043.4414 257.80161 2047.752 255.28711 C 2052.1822 252.65288 2056.3129 249.05981 2060.1445 244.50977 L 2060.6836 244.50977 L 2062.6602 256.90234 L 2084.2129 256.90234 L 2084.2129 167.81836 L 2057.8105 167.81836 L 2057.8105 226.72852 C 2055.1763 230.20092 2052.7203 232.71684 2050.4453 234.27344 C 2048.1703 235.83003 2045.3566 236.60742 2042.0039 236.60742 C 2038.1722 236.60742 2035.3586 235.41038 2033.5625 233.01562 C 2031.7664 230.62086 2030.8691 226.19046 2030.8691 219.72461 L 2030.8691 167.81836 L 2004.4668 167.81836 z M 1659.3047 185.7793 C 1664.6929 185.7793 1668.5238 187.33603 1670.7988 190.44922 C 1673.0738 193.56241 1674.2109 197.63311 1674.2109 202.66211 L 1642.0625 202.66211 C 1643.0204 196.91468 1645.0548 192.66413 1648.168 189.91016 C 1651.4009 187.15618 1655.1138 185.7793 1659.3047 185.7793 z M 1822.9707 187.03516 C 1828.3589 187.03516 1832.4296 189.31129 1835.1836 193.86133 C 1837.9376 198.41137 1839.3145 204.57836 1839.3145 212.36133 C 1839.3145 220.1443 1837.9376 226.30934 1835.1836 230.85938 C 1832.4296 235.40942 1828.3589 237.68555 1822.9707 237.68555 C 1817.4628 237.68555 1813.3321 235.40942 1810.5781 230.85938 C 1807.9439 226.30933 1806.627 220.1443 1806.627 212.36133 C 1806.627 204.57836 1807.9439 198.41137 1810.5781 193.86133 C 1813.3321 189.31129 1817.4628 187.03516 1822.9707 187.03516 z M 2149.1152 187.21484 C 2159.4127 187.21484 2164.5605 195.23831 2164.5605 211.2832 C 2164.5605 220.50303 2162.9439 227.20761 2159.7109 231.39844 C 2156.478 235.46953 2152.5872 237.50586 2148.0371 237.50586 C 2145.7621 237.50586 2143.428 237.08621 2141.0332 236.24805 C 2138.6385 235.40988 2136.2424 233.91309 2133.8477 231.75781 L 2133.8477 195.29883 C 2138.7569 189.91061 2143.8468 187.21484 2149.1152 187.21484 z "
     style="font-style:normal;font-variant:normal;font-weight:bold;font-stretch:normal;font-size:179.607px;line-height:1.25;font-family:'Source Sans Pro';-inkscape-font-specification:'Source Sans Pro Bold';font-variant-ligatures:normal;font-variant-caps:normal;font-variant-numeric:normal;font-variant-east-asian:normal;text-align:center;text-anchor:middle;fill:#ffffff;stroke-width:2.92838"
     id="path983" />
  <g
     style="opacity:1"
     id="g1175">
    <g
       id="g1177">
      <g
         style="opacity:1"
         id="g1181" />
    </g>
  </g>
  <g
     style="opacity:1"
     id="g1147">
    <g
       id="g1149">
      <g
         style="opacity:1"
         id="g1153" />
    </g>
  </g>
  <g
     style="opacity:1"
     id="g1161">
    <g
       id="g1163">
      <g
         style="opacity:1"
         id="g1167" />
    </g>
  </g>
  <path
     d="M 5.2786951,-1108.0795 H 3709.5739 v 449.00488 H 5.2786951 Z"
     transform="scale(1,-1)"
     style="fill:#e4231f;fill-opacity:1;stroke:none;stroke-width:166.495;stroke-miterlimit:4;stroke-dasharray:none;stroke-opacity:1;paint-order:markers stroke fill;stop-color:#000000"
     id="rect1123" />
  <path
     d="M 2955.168 785.94141 C 2946.4271 785.94141 2939.9623 788.51728 2935.7715 793.66602 C 2931.7004 798.81475 2929.6641 805.87902 2929.6641 814.85938 L 2929.6641 828.68945 L 2917.8105 829.58594 L 2917.8105 840.72266 L 2929.6641 840.72266 L 2929.6641 915.97852 L 2944.3926 915.97852 L 2944.3926 840.72266 L 2962.8926 840.72266 L 2962.8926 828.68945 L 2944.3926 828.68945 L 2944.3926 814.85938 C 2944.3926 803.604 2948.4633 797.97656 2956.6055 797.97656 C 2959.9581 797.97656 2963.2514 798.69401 2966.4844 800.13086 L 2969.7168 788.81641 C 2967.6813 787.97824 2965.4071 787.3188 2962.8926 786.83984 C 2960.4978 786.24116 2957.922 785.94141 2955.168 785.94141 z M 1905.5293 788.09766 L 1905.5293 821.68359 L 1906.248 836.5918 C 1902.4164 833.47861 1898.6435 831.02459 1894.9316 829.22852 C 1891.2198 827.43245 1886.8493 826.5332 1881.8203 826.5332 C 1876.7913 826.5332 1872.0012 827.61034 1867.4512 829.76562 C 1862.9011 831.92091 1858.8904 834.97443 1855.418 838.92578 C 1851.9456 842.87713 1849.1318 847.72718 1846.9766 853.47461 C 1844.941 859.1023 1843.9238 865.44913 1843.9238 872.51367 C 1843.9238 887.12171 1847.1572 898.37658 1853.623 906.2793 C 1860.2086 914.182 1869.0095 918.13281 1880.0254 918.13281 C 1885.1741 918.13281 1889.9623 916.93578 1894.3926 914.54102 C 1898.9426 912.02652 1902.9534 909.0929 1906.4258 905.74023 L 1906.9648 905.74023 L 1908.2227 915.97852 L 1920.4355 915.97852 L 1920.4355 788.09766 L 1905.5293 788.09766 z M 2272.2168 788.09766 L 2272.2168 898.37695 C 2272.2168 904.84281 2273.4139 909.75086 2275.8086 913.10352 C 2278.2033 916.45618 2282.2141 918.13281 2287.8418 918.13281 C 2289.8773 918.13281 2291.554 918.01292 2292.8711 917.77344 C 2294.1882 917.53396 2295.3253 917.17427 2296.2832 916.69531 L 2294.3066 905.56055 C 2293.4685 905.80002 2292.811 905.91992 2292.332 905.91992 L 2291.0742 905.91992 C 2289.9966 905.91992 2289.0393 905.44032 2288.2012 904.48242 C 2287.363 903.52452 2286.9434 901.84789 2286.9434 899.45312 L 2286.9434 788.09766 L 2272.2168 788.09766 z M 2732.459 788.09766 L 2732.459 898.37695 C 2732.459 904.84281 2733.656 909.75086 2736.0508 913.10352 C 2738.4455 916.45618 2742.4563 918.13281 2748.084 918.13281 C 2750.1195 918.13281 2751.7961 918.01292 2753.1133 917.77344 C 2754.4303 917.53396 2755.5675 917.17427 2756.5254 916.69531 L 2754.5508 905.56055 C 2753.7126 905.80002 2753.0532 905.91992 2752.5742 905.91992 L 2751.3184 905.91992 C 2750.2407 905.91992 2749.2815 905.44032 2748.4434 904.48242 C 2747.6052 903.52452 2747.1855 901.84789 2747.1855 899.45312 L 2747.1855 788.09766 L 2732.459 788.09766 z M 1282.4492 791.68945 C 1279.5755 791.68945 1277.1215 792.58869 1275.0859 794.38477 C 1273.1701 796.0611 1272.2109 798.33528 1272.2109 801.20898 C 1272.2109 803.96296 1273.1701 806.23713 1275.0859 808.0332 C 1277.1215 809.82927 1279.5755 810.72852 1282.4492 810.72852 C 1285.323 810.72852 1287.719 809.82927 1289.6348 808.0332 C 1291.6703 806.23713 1292.6875 803.96296 1292.6875 801.20898 C 1292.6875 798.33528 1291.6703 796.0611 1289.6348 794.38477 C 1287.719 792.58869 1285.323 791.68945 1282.4492 791.68945 z M 2484.9746 791.68945 C 2482.1009 791.68945 2479.6469 792.58869 2477.6113 794.38477 C 2475.6955 796.0611 2474.7363 798.33528 2474.7363 801.20898 C 2474.7363 803.96296 2475.6955 806.23713 2477.6113 808.0332 C 2479.6469 809.82927 2482.1009 810.72852 2484.9746 810.72852 C 2487.8483 810.72852 2490.2424 809.82927 2492.1582 808.0332 C 2494.1937 806.23713 2495.2129 803.96296 2495.2129 801.20898 C 2495.2129 798.33528 2494.1937 796.0611 2492.1582 794.38477 C 2490.2424 792.58869 2487.8483 791.68945 2484.9746 791.68945 z M 453.02734 798.15625 L 453.02734 915.97852 L 466.49805 915.97852 L 466.49805 851.14062 C 466.49805 845.87215 466.25825 840.06486 465.7793 833.71875 C 465.42008 827.37264 465.06039 821.56535 464.70117 816.29688 L 465.41992 816.29688 L 474.75977 843.05664 L 497.03125 904.12305 L 506.91016 904.12305 L 529.17969 843.05664 L 538.51953 816.29688 L 539.23828 816.29688 C 538.87907 821.56535 538.45942 827.37264 537.98047 833.71875 C 537.50152 840.06486 537.26367 845.87215 537.26367 851.14062 L 537.26367 915.97852 L 551.27148 915.97852 L 551.27148 798.15625 L 533.13281 798.15625 L 510.86133 861.01758 C 509.42447 865.08867 508.04759 869.21932 506.73047 873.41016 C 505.53309 877.48124 504.21616 881.55391 502.7793 885.625 L 502.06055 885.625 C 500.62369 881.55391 499.18685 877.48124 497.75 873.41016 C 496.43288 869.21932 495.05599 865.08867 493.61914 861.01758 L 470.98828 798.15625 L 453.02734 798.15625 z M 2011.3008 798.15625 L 1971.4277 915.97852 L 1986.6934 915.97852 L 1998.0098 880.05664 L 2040.9355 880.05664 L 2052.0703 915.97852 L 2068.0566 915.97852 L 2028.1836 798.15625 L 2011.3008 798.15625 z M 674.46289 804.26172 L 672.66602 828.68945 L 659.01758 829.58594 L 659.01758 840.72266 L 671.94922 840.72266 L 671.94922 889.03711 C 671.94922 893.34768 672.36691 897.29849 673.20508 900.89062 C 674.04324 904.48277 675.42013 907.53629 677.33594 910.05078 C 679.37148 912.56528 681.94736 914.54166 685.06055 915.97852 C 688.29347 917.41538 692.24428 918.13281 696.91406 918.13281 C 699.66804 918.13281 702.42181 917.77311 705.17578 917.05469 C 708.04949 916.45599 710.68337 915.73856 713.07812 914.90039 L 710.20508 903.76367 C 708.76822 904.36236 707.15154 904.90191 705.35547 905.38086 C 703.5594 905.85981 701.88277 906.09961 700.32617 906.09961 C 695.29717 906.09961 691.76602 904.66278 689.73047 901.78906 C 687.81466 898.79562 686.85547 894.60501 686.85547 889.2168 L 686.85547 840.72266 L 710.38477 840.72266 L 710.38477 828.68945 L 686.85547 828.68945 L 686.85547 804.26172 L 674.46289 804.26172 z M 1324.1348 804.26172 L 1322.3398 828.68945 L 1308.6895 829.58594 L 1308.6895 840.72266 L 1321.6211 840.72266 L 1321.6211 889.03711 C 1321.6211 893.34768 1322.0388 897.29849 1322.877 900.89062 C 1323.7151 904.48277 1325.0939 907.53629 1327.0098 910.05078 C 1329.0453 912.56528 1331.6192 914.54166 1334.7324 915.97852 C 1337.9653 917.41538 1341.9161 918.13281 1346.5859 918.13281 C 1349.3399 918.13281 1352.0937 917.77311 1354.8477 917.05469 C 1357.7214 916.45599 1360.3553 915.73856 1362.75 914.90039 L 1359.877 903.76367 C 1358.4402 904.36236 1356.8235 904.90191 1355.0273 905.38086 C 1353.2313 905.85981 1351.5546 906.09961 1349.998 906.09961 C 1344.969 906.09961 1341.4379 904.66278 1339.4023 901.78906 C 1337.4865 898.79562 1336.5273 894.60501 1336.5273 889.2168 L 1336.5273 840.72266 L 1360.0566 840.72266 L 1360.0566 828.68945 L 1336.5273 828.68945 L 1336.5273 804.26172 L 1324.1348 804.26172 z M 2871.4922 804.26172 L 2869.6953 828.68945 L 2856.0449 829.58594 L 2856.0449 840.72266 L 2868.9766 840.72266 L 2868.9766 889.03711 C 2868.9766 893.34768 2869.3962 897.29849 2870.2344 900.89062 C 2871.0725 904.48277 2872.4494 907.53629 2874.3652 910.05078 C 2876.4008 912.56528 2878.9747 914.54166 2882.0879 915.97852 C 2885.3208 917.41538 2889.2716 918.13281 2893.9414 918.13281 C 2896.6953 918.13281 2899.4511 917.77311 2902.2051 917.05469 C 2905.0788 916.45599 2907.7127 915.73856 2910.1074 914.90039 L 2907.2324 903.76367 C 2905.7956 904.36236 2904.1808 904.90191 2902.3848 905.38086 C 2900.5887 905.85981 2898.9121 906.09961 2897.3555 906.09961 C 2892.3265 906.09961 2888.7933 904.66278 2886.7578 901.78906 C 2884.842 898.79562 2883.8848 894.60501 2883.8848 889.2168 L 2883.8848 840.72266 L 2907.4121 840.72266 L 2907.4121 828.68945 L 2883.8848 828.68945 L 2883.8848 804.26172 L 2871.4922 804.26172 z M 2019.0234 810.36914 L 2019.7422 810.36914 C 2021.658 817.19421 2023.5725 823.89879 2025.4883 830.48438 C 2027.4041 836.95023 2029.4404 843.47691 2031.5957 850.0625 L 2037.1641 868.02344 L 2001.7812 868.02344 L 2007.3496 850.0625 C 2009.5049 843.47691 2011.5393 836.95023 2013.4551 830.48438 C 2015.3709 823.89879 2017.2274 817.19421 2019.0234 810.36914 z M 614.77539 826.5332 C 609.74639 826.5332 604.89634 827.61034 600.22656 829.76562 C 595.55678 831.80116 591.36618 834.79473 587.6543 838.74609 C 584.06216 842.69745 581.12854 847.5475 578.85352 853.29492 C 576.69823 858.92261 575.62109 865.32939 575.62109 872.51367 C 575.62109 879.69795 576.69823 886.10278 578.85352 891.73047 C 581.0088 897.35816 583.94242 902.14826 587.6543 906.09961 C 591.48591 909.93122 595.91631 912.92479 600.94531 915.08008 C 606.09405 917.11562 611.60159 918.13281 617.46875 918.13281 C 623.45565 918.13281 628.78334 917.23553 633.45312 915.43945 C 638.12291 913.64339 642.37346 911.5471 646.20508 909.15234 L 640.99805 899.45312 C 637.76512 901.48867 634.35191 903.1653 630.75977 904.48242 C 627.28737 905.6798 623.45646 906.2793 619.26562 906.2793 C 610.88396 906.2793 604.05754 903.58548 598.78906 898.19727 C 593.64033 892.68932 590.76666 885.26535 590.16797 875.92578 L 649.08008 875.92578 C 649.31956 874.84814 649.43945 873.59115 649.43945 872.1543 C 649.55919 870.5977 649.61914 869.04097 649.61914 867.48438 C 649.61914 861.258 648.8398 855.63056 647.2832 850.60156 C 645.72661 845.57256 643.45243 841.26206 640.45898 837.66992 C 637.58527 834.07778 633.93226 831.32206 629.50195 829.40625 C 625.19139 827.49044 620.28334 826.5332 614.77539 826.5332 z M 758.95117 826.5332 C 751.88663 826.5332 745.4199 827.79019 739.55273 830.30469 C 733.68557 832.69945 728.71758 835.21538 724.64648 837.84961 L 730.39453 848.08594 C 733.86693 845.69118 737.81774 843.5369 742.24805 841.62109 C 746.67835 839.70529 751.40851 838.74609 756.4375 838.74609 C 760.02964 838.74609 762.96326 839.40554 765.23828 840.72266 C 767.63304 841.92004 769.48757 843.53672 770.80469 845.57227 C 772.12181 847.60781 773.02105 849.94194 773.5 852.57617 C 774.09869 855.21041 774.39648 857.90423 774.39648 860.6582 C 755.71736 862.69375 742.12835 866.28681 733.62695 871.43555 C 725.12556 876.46454 720.875 883.76862 720.875 893.34766 C 720.875 901.25036 723.26907 907.3574 728.05859 911.66797 C 732.96785 915.97854 739.07489 918.13281 746.37891 918.13281 C 751.88685 918.13281 757.0347 916.93578 761.82422 914.54102 C 766.61374 912.02652 771.10409 909.03295 775.29492 905.56055 L 775.83398 905.56055 L 777.0918 915.97852 L 789.30469 915.97852 L 789.30469 862.45508 C 789.30469 851.55892 786.91061 842.87796 782.12109 836.41211 C 777.33157 829.82652 769.60785 826.5332 758.95117 826.5332 z M 891.34375 826.5332 C 886.31476 826.5332 881.64456 828.14989 877.33398 831.38281 C 873.14316 834.61574 869.55205 838.98619 866.55859 844.49414 L 866.01953 844.49414 L 864.76172 828.68945 L 852.54883 828.68945 L 852.54883 915.97852 L 867.27734 915.97852 L 867.27734 859.93945 C 870.2708 852.5157 873.74201 847.30791 877.69336 844.31445 C 881.76445 841.32101 885.65727 839.82422 889.36914 839.82422 C 891.16521 839.82422 892.662 839.94412 893.85938 840.18359 C 895.05676 840.42307 896.37369 840.78277 897.81055 841.26172 L 900.68359 828.33008 C 897.92962 827.1327 894.81615 826.5332 891.34375 826.5332 z M 945.92578 826.5332 C 940.89679 826.5332 936.04673 827.61034 931.37695 829.76562 C 926.70717 831.80116 922.51656 834.79473 918.80469 838.74609 C 915.21255 842.69745 912.27893 847.5475 910.00391 853.29492 C 907.84863 858.92261 906.77148 865.32939 906.77148 872.51367 C 906.77148 879.69795 907.84863 886.10278 910.00391 891.73047 C 912.15919 897.35816 915.09281 902.14826 918.80469 906.09961 C 922.6363 909.93122 927.06671 912.92479 932.0957 915.08008 C 937.24444 917.11562 942.75197 918.13281 948.61914 918.13281 C 954.60604 918.13281 959.93374 917.23553 964.60352 915.43945 C 969.2733 913.64339 973.52385 911.5471 977.35547 909.15234 L 972.14844 899.45312 C 968.91551 901.48867 965.50229 903.1653 961.91016 904.48242 C 958.43775 905.6798 954.60684 906.2793 950.41602 906.2793 C 942.03436 906.2793 935.20793 903.58548 929.93945 898.19727 C 924.79072 892.68932 921.91705 885.26535 921.31836 875.92578 L 980.23047 875.92578 C 980.46994 874.84814 980.58984 873.59115 980.58984 872.1543 C 980.70958 870.5977 980.76953 869.04097 980.76953 867.48438 C 980.76953 861.258 979.99019 855.63056 978.43359 850.60156 C 976.877 845.57256 974.60283 841.26206 971.60938 837.66992 C 968.73566 834.07778 965.08264 831.32206 960.65234 829.40625 C 956.34177 827.49044 951.43373 826.5332 945.92578 826.5332 z M 1044.1875 826.5332 C 1039.0388 826.5332 1034.0688 827.73024 1029.2793 830.125 C 1024.6096 832.51976 1020.2991 835.39343 1016.3477 838.74609 L 1015.8086 838.74609 L 1014.5508 828.68945 L 1002.3379 828.68945 L 1002.3379 952.79688 L 1017.0664 952.79688 L 1017.0664 923.3418 L 1016.707 908.07422 C 1020.7782 911.18741 1024.7889 913.64339 1028.7402 915.43945 C 1032.8114 917.23553 1036.8821 918.13281 1040.9531 918.13281 C 1045.9821 918.13281 1050.7722 917.11562 1055.3223 915.08008 C 1059.8723 912.92479 1063.8831 909.81133 1067.3555 905.74023 C 1070.8279 901.66915 1073.5817 896.75915 1075.6172 891.01172 C 1077.6528 885.14456 1078.6719 878.49993 1078.6719 871.07617 C 1078.6719 864.25111 1077.8925 858.14407 1076.3359 852.75586 C 1074.8991 847.24791 1072.7448 842.57771 1069.8711 838.74609 C 1066.9974 834.79473 1063.4043 831.80117 1059.0938 829.76562 C 1054.7831 827.61034 1049.8152 826.5332 1044.1875 826.5332 z M 1135.9102 826.5332 C 1130.522 826.5332 1125.3722 827.55039 1120.4629 829.58594 C 1115.6734 831.62148 1111.4229 834.61505 1107.7109 838.56641 C 1103.9991 842.51776 1101.0055 847.36781 1098.7305 853.11523 C 1096.5752 858.74291 1095.498 865.20965 1095.498 872.51367 C 1095.498 879.69795 1096.5752 886.16273 1098.7305 891.91016 C 1101.0055 897.53784 1103.9991 902.32794 1107.7109 906.2793 C 1111.4229 910.11091 1115.6734 913.04453 1120.4629 915.08008 C 1125.3722 917.11562 1130.522 918.13281 1135.9102 918.13281 C 1141.2984 918.13281 1146.3863 917.11562 1151.1758 915.08008 C 1156.085 913.04453 1160.3956 910.11091 1164.1074 906.2793 C 1167.8194 902.32794 1170.7529 897.53784 1172.9082 891.91016 C 1175.1832 886.16273 1176.3223 879.69795 1176.3223 872.51367 C 1176.3223 865.20965 1175.1832 858.74291 1172.9082 853.11523 C 1170.7529 847.36781 1167.8194 842.51776 1164.1074 838.56641 C 1160.3956 834.61505 1156.085 831.62148 1151.1758 829.58594 C 1146.3863 827.55039 1141.2984 826.5332 1135.9102 826.5332 z M 1224.0918 826.5332 C 1219.422 826.5332 1215.2314 827.19265 1211.5195 828.50977 C 1207.8077 829.70715 1204.6343 831.44373 1202 833.71875 C 1199.4855 835.87404 1197.5091 838.50791 1196.0723 841.62109 C 1194.7551 844.61454 1194.0977 847.84595 1194.0977 851.31836 C 1194.0977 855.03023 1194.875 858.20365 1196.4316 860.83789 C 1197.9882 863.47212 1199.9646 865.8082 1202.3594 867.84375 C 1204.8739 869.75956 1207.6876 871.43619 1210.8008 872.87305 C 1213.9139 874.19017 1217.0274 875.3872 1220.1406 876.46484 C 1222.5354 877.42275 1224.9295 878.37998 1227.3242 879.33789 C 1229.719 880.29579 1231.8153 881.43288 1233.6113 882.75 C 1235.5272 883.94738 1237.082 885.38421 1238.2793 887.06055 C 1239.4767 888.73687 1240.0762 890.71325 1240.0762 892.98828 C 1240.0762 896.81989 1238.6394 900.05326 1235.7656 902.6875 C 1232.892 905.32173 1228.5815 906.63867 1222.834 906.63867 C 1217.5655 906.63867 1212.8953 905.67948 1208.8242 903.76367 C 1204.8728 901.84787 1200.982 899.3339 1197.1504 896.2207 L 1189.7871 906.09961 C 1193.978 909.57201 1198.886 912.44568 1204.5137 914.7207 C 1210.1413 916.99573 1216.0685 918.13281 1222.2949 918.13281 C 1227.4437 918.13281 1231.994 917.41538 1235.9453 915.97852 C 1240.0164 914.6614 1243.3697 912.80492 1246.0039 910.41016 C 1248.7579 908.0154 1250.7922 905.26163 1252.1094 902.14844 C 1253.5462 899.03525 1254.2656 895.68198 1254.2656 892.08984 C 1254.2656 888.01876 1253.4263 884.54559 1251.75 881.67188 C 1250.1934 878.79816 1248.1591 876.40409 1245.6445 874.48828 C 1243.1301 872.45273 1240.2564 870.7761 1237.0234 869.45898 C 1233.9102 868.14186 1230.7968 866.88488 1227.6836 865.6875 C 1225.1691 864.7296 1222.7151 863.83231 1220.3203 862.99414 C 1218.0453 862.03623 1216.009 861.01709 1214.2129 859.93945 C 1212.4168 858.74207 1210.98 857.42513 1209.9023 855.98828 C 1208.8247 854.43169 1208.2852 852.63711 1208.2852 850.60156 C 1208.2852 847.2489 1209.5422 844.31528 1212.0566 841.80078 C 1214.6909 839.28629 1218.7636 838.0293 1224.2715 838.0293 C 1228.1031 838.0293 1231.6343 838.74674 1234.8672 840.18359 C 1238.1001 841.62045 1241.2136 843.47693 1244.207 845.75195 L 1251.2109 836.41211 C 1247.8583 833.65814 1243.8475 831.32206 1239.1777 829.40625 C 1234.6277 827.49044 1229.5997 826.5332 1224.0918 826.5332 z M 1411.2832 826.5332 C 1405.895 826.5332 1400.7472 827.55039 1395.8379 829.58594 C 1391.0484 831.62148 1386.7978 834.61505 1383.0859 838.56641 C 1379.3741 842.51776 1376.3805 847.36781 1374.1055 853.11523 C 1371.9502 858.74291 1370.873 865.20965 1370.873 872.51367 C 1370.873 879.69795 1371.9502 886.16273 1374.1055 891.91016 C 1376.3805 897.53784 1379.3741 902.32794 1383.0859 906.2793 C 1386.7978 910.11091 1391.0484 913.04453 1395.8379 915.08008 C 1400.7472 917.11562 1405.895 918.13281 1411.2832 918.13281 C 1416.6714 918.13281 1421.7612 917.11562 1426.5508 915.08008 C 1431.46 913.04453 1435.7705 910.11091 1439.4824 906.2793 C 1443.1943 902.32794 1446.1279 897.53784 1448.2832 891.91016 C 1450.5582 886.16273 1451.6953 879.69795 1451.6953 872.51367 C 1451.6953 865.20965 1450.5582 858.74291 1448.2832 853.11523 C 1446.1279 847.36781 1443.1943 842.51776 1439.4824 838.56641 C 1435.7705 834.61505 1431.46 831.62148 1426.5508 829.58594 C 1421.7612 827.55039 1416.6714 826.5332 1411.2832 826.5332 z M 1513.6543 826.5332 C 1508.6253 826.5332 1503.9551 828.14989 1499.6445 831.38281 C 1495.4537 834.61574 1491.8626 838.98619 1488.8691 844.49414 L 1488.3301 844.49414 L 1487.0723 828.68945 L 1474.8594 828.68945 L 1474.8594 915.97852 L 1489.5859 915.97852 L 1489.5859 859.93945 C 1492.5794 852.5157 1496.0526 847.30791 1500.0039 844.31445 C 1504.075 841.32101 1507.9659 839.82422 1511.6777 839.82422 C 1513.4738 839.82422 1514.9706 839.94412 1516.168 840.18359 C 1517.3654 840.42307 1518.6823 840.78277 1520.1191 841.26172 L 1522.9941 828.33008 C 1520.2402 827.1327 1517.1267 826.5332 1513.6543 826.5332 z M 1694.1699 826.5332 C 1687.1054 826.5332 1680.6406 827.79019 1674.7734 830.30469 C 1668.9062 832.69945 1663.9363 835.21538 1659.8652 837.84961 L 1665.6133 848.08594 C 1669.0857 845.69118 1673.0365 843.5369 1677.4668 841.62109 C 1681.8971 839.70529 1686.6272 838.74609 1691.6562 838.74609 C 1695.2484 838.74609 1698.182 839.40554 1700.457 840.72266 C 1702.8518 841.92004 1704.7083 843.53672 1706.0254 845.57227 C 1707.3425 847.60781 1708.2398 849.94194 1708.7188 852.57617 C 1709.3174 855.21041 1709.6172 857.90423 1709.6172 860.6582 C 1690.9381 862.69375 1677.3471 866.28681 1668.8457 871.43555 C 1660.3443 876.46454 1656.0938 883.76862 1656.0938 893.34766 C 1656.0938 901.25036 1658.4878 907.3574 1663.2773 911.66797 C 1668.1866 915.97854 1674.2937 918.13281 1681.5977 918.13281 C 1687.1056 918.13281 1692.2554 916.93578 1697.0449 914.54102 C 1701.8345 912.02652 1706.3248 909.03295 1710.5156 905.56055 L 1711.0527 905.56055 L 1712.3105 915.97852 L 1724.5234 915.97852 L 1724.5234 862.45508 C 1724.5234 851.55892 1722.1294 842.87796 1717.3398 836.41211 C 1712.5503 829.82652 1704.8266 826.5332 1694.1699 826.5332 z M 1795.2715 826.5332 C 1789.1648 826.5332 1783.7772 827.97004 1779.1074 830.84375 C 1774.5574 833.59772 1770.187 837.07089 1765.9961 841.26172 L 1765.457 841.26172 L 1764.2012 828.68945 L 1751.9863 828.68945 L 1751.9863 915.97852 L 1766.7148 915.97852 L 1766.7148 852.75586 C 1771.1452 848.32555 1775.096 844.97229 1778.5684 842.69727 C 1782.0408 840.42225 1786.0534 839.28516 1790.6035 839.28516 C 1796.3509 839.28516 1800.5415 841.14164 1803.1758 844.85352 C 1805.81 848.44566 1807.127 854.37284 1807.127 862.63477 L 1807.127 915.97852 L 1821.8535 915.97852 L 1821.8535 860.6582 C 1821.8535 849.40283 1819.6993 840.90172 1815.3887 835.1543 C 1811.1979 829.40687 1804.4913 826.5332 1795.2715 826.5332 z M 2126.7734 826.5332 C 2120.6668 826.5332 2115.2792 827.97004 2110.6094 830.84375 C 2106.0594 833.59772 2101.6889 837.07089 2097.498 841.26172 L 2096.959 841.26172 L 2095.7012 828.68945 L 2083.4883 828.68945 L 2083.4883 915.97852 L 2098.2168 915.97852 L 2098.2168 852.75586 C 2102.6471 848.32555 2106.5979 844.97229 2110.0703 842.69727 C 2113.5427 840.42225 2117.5534 839.28516 2122.1035 839.28516 C 2127.8509 839.28516 2132.0415 841.14164 2134.6758 844.85352 C 2137.31 848.44566 2138.627 854.37284 2138.627 862.63477 L 2138.627 915.97852 L 2153.3555 915.97852 L 2153.3555 860.6582 C 2153.3555 849.40283 2151.1992 840.90172 2146.8887 835.1543 C 2142.6978 829.40687 2135.9932 826.5332 2126.7734 826.5332 z M 2214.3984 826.5332 C 2207.3339 826.5332 2200.8692 827.79019 2195.002 830.30469 C 2189.1348 832.69945 2184.1648 835.21538 2180.0938 837.84961 L 2185.8418 848.08594 C 2189.3142 845.69118 2193.265 843.5369 2197.6953 841.62109 C 2202.1256 839.70529 2206.8558 838.74609 2211.8848 838.74609 C 2215.4769 838.74609 2218.4105 839.40554 2220.6855 840.72266 C 2223.0803 841.92004 2224.9368 843.53672 2226.2539 845.57227 C 2227.571 847.60781 2228.4683 849.94194 2228.9473 852.57617 C 2229.5459 855.21041 2229.8457 857.90423 2229.8457 860.6582 C 2211.1666 862.69375 2197.5756 866.28681 2189.0742 871.43555 C 2180.5728 876.46454 2176.3223 883.76862 2176.3223 893.34766 C 2176.3223 901.25036 2178.7183 907.3574 2183.5078 911.66797 C 2188.4171 915.97854 2194.5222 918.13281 2201.8262 918.13281 C 2207.3341 918.13281 2212.4839 916.93578 2217.2734 914.54102 C 2222.063 912.02652 2226.5533 909.03295 2230.7441 905.56055 L 2231.2832 905.56055 L 2232.5391 915.97852 L 2244.752 915.97852 L 2244.752 862.45508 C 2244.752 851.55892 2242.3579 842.87796 2237.5684 836.41211 C 2232.7788 829.82652 2225.0551 826.5332 2214.3984 826.5332 z M 2426.6152 826.5332 C 2421.9454 826.5332 2417.7548 827.19265 2414.043 828.50977 C 2410.3311 829.70715 2407.1597 831.44373 2404.5254 833.71875 C 2402.0109 835.87404 2400.0345 838.50791 2398.5977 841.62109 C 2397.2805 844.61454 2396.6211 847.84595 2396.6211 851.31836 C 2396.6211 855.03023 2397.4004 858.20365 2398.957 860.83789 C 2400.5136 863.47212 2402.4881 865.8082 2404.8828 867.84375 C 2407.3973 869.75956 2410.213 871.43619 2413.3262 872.87305 C 2416.4393 874.19017 2419.5509 875.3872 2422.6641 876.46484 C 2425.0589 877.42275 2427.4549 878.37998 2429.8496 879.33789 C 2432.2443 880.29579 2434.3387 881.43288 2436.1348 882.75 C 2438.0506 883.94738 2439.6074 885.38421 2440.8047 887.06055 C 2442.0021 888.73687 2442.6016 890.71325 2442.6016 892.98828 C 2442.6016 896.81989 2441.1647 900.05326 2438.291 902.6875 C 2435.4173 905.32173 2431.1068 906.63867 2425.3594 906.63867 C 2420.0909 906.63867 2415.4207 905.67948 2411.3496 903.76367 C 2407.3983 901.84787 2403.5074 899.3339 2399.6758 896.2207 L 2392.3105 906.09961 C 2396.5014 909.57201 2401.4114 912.44568 2407.0391 914.7207 C 2412.6667 916.99573 2418.5939 918.13281 2424.8203 918.13281 C 2429.969 918.13281 2434.5194 917.41538 2438.4707 915.97852 C 2442.5418 914.6614 2445.8931 912.80492 2448.5273 910.41016 C 2451.2813 908.0154 2453.3176 905.26163 2454.6348 902.14844 C 2456.0716 899.03525 2456.791 895.68198 2456.791 892.08984 C 2456.791 888.01876 2455.9517 884.54559 2454.2754 881.67188 C 2452.7188 878.79816 2450.6845 876.40409 2448.1699 874.48828 C 2445.6555 872.45273 2442.7818 870.7761 2439.5488 869.45898 C 2436.4356 868.14186 2433.3222 866.88488 2430.209 865.6875 C 2427.6945 864.7296 2425.2386 863.83231 2422.8438 862.99414 C 2420.5687 862.03623 2418.5343 861.01709 2416.7383 859.93945 C 2414.9422 858.74207 2413.5054 857.42513 2412.4277 855.98828 C 2411.3501 854.43169 2410.8105 852.63711 2410.8105 850.60156 C 2410.8105 847.2489 2412.0676 844.31528 2414.582 841.80078 C 2417.2163 839.28629 2421.287 838.0293 2426.7949 838.0293 C 2430.6265 838.0293 2434.1596 838.74674 2437.3926 840.18359 C 2440.6255 841.62045 2443.739 843.47693 2446.7324 845.75195 L 2453.7363 836.41211 C 2450.3837 833.65814 2446.3729 831.32206 2441.7031 829.40625 C 2437.1531 827.49044 2432.1232 826.5332 2426.6152 826.5332 z M 2546.2363 826.5332 C 2541.5665 826.5332 2537.3759 827.19265 2533.6641 828.50977 C 2529.9522 829.70715 2526.7808 831.44373 2524.1465 833.71875 C 2521.632 835.87404 2519.6556 838.50791 2518.2188 841.62109 C 2516.9016 844.61454 2516.2422 847.84595 2516.2422 851.31836 C 2516.2422 855.03023 2517.0215 858.20365 2518.5781 860.83789 C 2520.1347 863.47212 2522.1092 865.8082 2524.5039 867.84375 C 2527.0184 869.75956 2529.8341 871.43619 2532.9473 872.87305 C 2536.0604 874.19017 2539.172 875.3872 2542.2852 876.46484 C 2544.68 877.42275 2547.076 878.37998 2549.4707 879.33789 C 2551.8654 880.29579 2553.9598 881.43288 2555.7559 882.75 C 2557.6717 883.94738 2559.2284 885.38421 2560.4258 887.06055 C 2561.6232 888.73687 2562.2227 890.71325 2562.2227 892.98828 C 2562.2227 896.81989 2560.7858 900.05326 2557.9121 902.6875 C 2555.0384 905.32173 2550.7279 906.63867 2544.9805 906.63867 C 2539.712 906.63867 2535.0418 905.67948 2530.9707 903.76367 C 2527.0193 901.84787 2523.1285 899.3339 2519.2969 896.2207 L 2511.9316 906.09961 C 2516.1225 909.57201 2521.0325 912.44568 2526.6602 914.7207 C 2532.2878 916.99573 2538.215 918.13281 2544.4414 918.13281 C 2549.5901 918.13281 2554.1405 917.41538 2558.0918 915.97852 C 2562.1629 914.6614 2565.5142 912.80492 2568.1484 910.41016 C 2570.9024 908.0154 2572.9387 905.26163 2574.2559 902.14844 C 2575.6927 899.03525 2576.4121 895.68198 2576.4121 892.08984 C 2576.4121 888.01876 2575.5728 884.54559 2573.8965 881.67188 C 2572.34 878.79816 2570.3055 876.40409 2567.791 874.48828 C 2565.2765 872.45273 2562.4029 870.7761 2559.1699 869.45898 C 2556.0567 868.14186 2552.9433 866.88488 2549.8301 865.6875 C 2547.3156 864.7296 2544.8596 863.83231 2542.4648 862.99414 C 2540.1898 862.03623 2538.1554 861.01709 2536.3594 859.93945 C 2534.5633 858.74207 2533.1265 857.42513 2532.0488 855.98828 C 2530.9712 854.43169 2530.4316 852.63711 2530.4316 850.60156 C 2530.4316 847.2489 2531.6887 844.31528 2534.2031 841.80078 C 2536.8374 839.28629 2540.9081 838.0293 2546.416 838.0293 C 2550.2476 838.0293 2553.7807 838.74674 2557.0137 840.18359 C 2560.2466 841.62045 2563.36 843.47693 2566.3535 845.75195 L 2573.3574 836.41211 C 2570.0048 833.65814 2565.994 831.32206 2561.3242 829.40625 C 2556.7742 827.49044 2551.7443 826.5332 2546.2363 826.5332 z M 2674.6816 826.5332 C 2669.5329 826.5332 2664.5629 827.73024 2659.7734 830.125 C 2655.1036 832.51976 2650.7931 835.39343 2646.8418 838.74609 L 2646.3027 838.74609 L 2645.0469 828.68945 L 2632.832 828.68945 L 2632.832 952.79688 L 2647.5605 952.79688 L 2647.5605 923.3418 L 2647.2012 908.07422 C 2651.2722 911.18741 2655.283 913.64339 2659.2344 915.43945 C 2663.3055 917.23553 2667.3782 918.13281 2671.4492 918.13281 C 2676.4782 918.13281 2681.2663 917.11562 2685.8164 915.08008 C 2690.3664 912.92479 2694.3792 909.81133 2697.8516 905.74023 C 2701.324 901.66915 2704.0777 896.75915 2706.1133 891.01172 C 2708.1488 885.14456 2709.166 878.49993 2709.166 871.07617 C 2709.166 864.25111 2708.3886 858.14407 2706.832 852.75586 C 2705.3952 847.24791 2703.239 842.57771 2700.3652 838.74609 C 2697.4916 834.79473 2693.8985 831.80117 2689.5879 829.76562 C 2685.2774 827.61034 2680.3094 826.5332 2674.6816 826.5332 z M 2811.1016 826.5332 C 2804.037 826.5332 2797.5703 827.79019 2791.7031 830.30469 C 2785.836 832.69945 2780.868 835.21538 2776.7969 837.84961 L 2782.5449 848.08594 C 2786.0173 845.69118 2789.9682 843.5369 2794.3984 841.62109 C 2798.8288 839.70529 2803.5589 838.74609 2808.5879 838.74609 C 2812.18 838.74609 2815.1137 839.40554 2817.3887 840.72266 C 2819.7835 841.92004 2821.638 843.53672 2822.9551 845.57227 C 2824.2722 847.60781 2825.1715 849.94194 2825.6504 852.57617 C 2826.2491 855.21041 2826.5469 857.90423 2826.5469 860.6582 C 2807.8677 862.69375 2794.2787 866.28681 2785.7773 871.43555 C 2777.2759 876.46454 2773.0254 883.76862 2773.0254 893.34766 C 2773.0254 901.25036 2775.4195 907.3574 2780.209 911.66797 C 2785.1183 915.97854 2791.2253 918.13281 2798.5293 918.13281 C 2804.0372 918.13281 2809.1851 916.93578 2813.9746 914.54102 C 2818.7641 912.02652 2823.2545 909.03295 2827.4453 905.56055 L 2827.9844 905.56055 L 2829.2422 915.97852 L 2841.4551 915.97852 L 2841.4551 862.45508 C 2841.4551 851.55892 2839.061 842.87796 2834.2715 836.41211 C 2829.482 829.82652 2821.7582 826.5332 2811.1016 826.5332 z M 3011.9609 826.5332 C 3006.5727 826.5332 3001.4249 827.55039 2996.5156 829.58594 C 2991.7261 831.62148 2987.4755 834.61505 2983.7637 838.56641 C 2980.0518 842.51776 2977.0582 847.36781 2974.7832 853.11523 C 2972.6279 858.74291 2971.5488 865.20965 2971.5488 872.51367 C 2971.5488 879.69795 2972.6279 886.16273 2974.7832 891.91016 C 2977.0582 897.53784 2980.0518 902.32794 2983.7637 906.2793 C 2987.4755 910.11091 2991.7261 913.04453 2996.5156 915.08008 C 3001.4249 917.11562 3006.5727 918.13281 3011.9609 918.13281 C 3017.3491 918.13281 3022.439 917.11562 3027.2285 915.08008 C 3032.1378 913.04453 3036.4483 910.11091 3040.1602 906.2793 C 3043.872 902.32794 3046.8056 897.53784 3048.9609 891.91016 C 3051.2359 886.16273 3052.373 879.69795 3052.373 872.51367 C 3052.373 865.20965 3051.2359 858.74291 3048.9609 853.11523 C 3046.8056 847.36781 3043.872 842.51776 3040.1602 838.56641 C 3036.4483 834.61505 3032.1378 831.62148 3027.2285 829.58594 C 3022.439 827.55039 3017.3491 826.5332 3011.9609 826.5332 z M 3114.332 826.5332 C 3109.303 826.5332 3104.6328 828.14989 3100.3223 831.38281 C 3096.1314 834.61574 3092.5384 838.98619 3089.5449 844.49414 L 3089.0078 844.49414 L 3087.75 828.68945 L 3075.5371 828.68945 L 3075.5371 915.97852 L 3090.2637 915.97852 L 3090.2637 859.93945 C 3093.2571 852.5157 3096.7302 847.30791 3100.6816 844.31445 C 3104.7527 841.32101 3108.6436 839.82422 3112.3555 839.82422 C 3114.1515 839.82422 3115.6483 839.94412 3116.8457 840.18359 C 3118.0431 840.42307 3119.3601 840.78277 3120.7969 841.26172 L 3123.6719 828.33008 C 3120.9179 827.1327 3117.8044 826.5332 3114.332 826.5332 z M 3179.1074 826.5332 C 3173.839 826.5332 3168.9309 827.97004 3164.3809 830.84375 C 3159.9506 833.59772 3155.818 837.07089 3151.9863 841.26172 L 3151.4492 841.26172 L 3150.1914 828.68945 L 3137.9785 828.68945 L 3137.9785 915.97852 L 3152.7051 915.97852 L 3152.7051 852.75586 C 3160.7275 843.77551 3168.0316 839.28516 3174.6172 839.28516 C 3180.2449 839.28516 3184.3755 841.14164 3187.0098 844.85352 C 3189.644 848.44566 3190.9609 854.37284 3190.9609 862.63477 L 3190.9609 915.97852 L 3205.6895 915.97852 L 3205.6895 852.75586 C 3213.7119 843.77551 3221.016 839.28516 3227.6016 839.28516 C 3233.1095 839.28516 3237.1802 841.14164 3239.8145 844.85352 C 3242.4487 848.44566 3243.7656 854.37284 3243.7656 862.63477 L 3243.7656 915.97852 L 3258.4941 915.97852 L 3258.4941 860.6582 C 3258.4941 849.40283 3256.278 840.90172 3251.8477 835.1543 C 3247.5371 829.40687 3240.8924 826.5332 3231.9121 826.5332 C 3226.5238 826.5332 3221.4959 828.08994 3216.8262 831.20312 C 3212.2761 834.19658 3207.7258 838.20733 3203.1758 843.23633 C 3201.3797 837.96785 3198.566 833.89715 3194.7344 831.02344 C 3191.0225 828.02999 3185.8128 826.5332 3179.1074 826.5332 z M 1274.9062 828.68945 L 1274.9062 915.97852 L 1289.6348 915.97852 L 1289.6348 828.68945 L 1274.9062 828.68945 z M 1529.2891 828.68945 L 1564.3125 916.1582 L 1562.3359 922.62305 C 1560.5399 928.01126 1558.0259 932.44166 1554.793 935.91406 C 1551.6798 939.5062 1547.6091 941.30273 1542.5801 941.30273 C 1541.5024 941.30273 1540.3633 941.12289 1539.166 940.76367 C 1537.9686 940.52419 1536.8915 940.2844 1535.9336 940.04492 L 1533.0605 951.71875 C 1534.4974 952.31744 1536.0541 952.73709 1537.7305 952.97656 C 1539.4068 953.33578 1541.2613 953.51563 1543.2969 953.51562 C 1547.7272 953.51562 1551.62 952.73824 1554.9727 951.18164 C 1558.3253 949.62505 1561.3189 947.46882 1563.9531 944.71484 C 1566.5874 942.08061 1568.8615 938.90719 1570.7773 935.19531 C 1572.6931 931.48343 1574.4297 927.47268 1575.9863 923.16211 L 1608.8535 828.68945 L 1594.4863 828.68945 L 1578.8594 877.00391 C 1577.662 880.83552 1576.4649 884.90623 1575.2676 889.2168 C 1574.0702 893.52736 1572.8132 897.65802 1571.4961 901.60938 L 1570.7773 901.60938 C 1569.4602 897.53829 1568.0234 893.40763 1566.4668 889.2168 C 1565.0299 884.90623 1563.653 880.83552 1562.3359 877.00391 L 1544.5547 828.68945 L 1529.2891 828.68945 z M 2305.5977 828.68945 L 2340.6211 916.1582 L 2338.6445 922.62305 C 2336.8484 928.01126 2334.3344 932.44166 2331.1016 935.91406 C 2327.9884 939.5062 2323.9177 941.30273 2318.8887 941.30273 C 2317.811 941.30273 2316.674 941.12289 2315.4766 940.76367 C 2314.2792 940.52419 2313.2001 940.2844 2312.2422 940.04492 L 2309.3691 951.71875 C 2310.806 952.31744 2312.3627 952.73709 2314.0391 952.97656 C 2315.7154 953.33578 2317.5719 953.51563 2319.6074 953.51562 C 2324.0378 953.51562 2327.9286 952.73824 2331.2812 951.18164 C 2334.6339 949.62505 2337.6275 947.46882 2340.2617 944.71484 C 2342.896 942.08061 2345.1701 938.90719 2347.0859 935.19531 C 2349.0017 931.48343 2350.7383 927.47268 2352.2949 923.16211 L 2385.1641 828.68945 L 2370.7949 828.68945 L 2355.1699 877.00391 C 2353.9725 880.83552 2352.7735 884.90623 2351.5762 889.2168 C 2350.3788 893.52736 2349.1218 897.65802 2347.8047 901.60938 L 2347.0859 901.60938 C 2345.7688 897.53829 2344.332 893.40763 2342.7754 889.2168 C 2341.3385 884.90623 2339.9616 880.83552 2338.6445 877.00391 L 2320.8633 828.68945 L 2305.5977 828.68945 z M 2477.4316 828.68945 L 2477.4316 915.97852 L 2492.1582 915.97852 L 2492.1582 828.68945 L 2477.4316 828.68945 z M 615.13281 838.20703 C 621.95788 838.20703 627.22757 840.5431 630.93945 845.21289 C 634.77107 849.76293 636.6875 856.46751 636.6875 865.32812 L 589.98828 865.32812 C 590.46723 861.01756 591.42643 857.18665 592.86328 853.83398 C 594.41987 850.48132 596.33435 847.6676 598.60938 845.39258 C 600.8844 842.99782 603.40032 841.20129 606.1543 840.00391 C 609.02801 838.80653 612.01963 838.20703 615.13281 838.20703 z M 946.2832 838.20703 C 953.10827 838.20703 958.37797 840.5431 962.08984 845.21289 C 965.92146 849.76293 967.83789 856.46751 967.83789 865.32812 L 921.13867 865.32812 C 921.61763 861.01756 922.57682 857.18665 924.01367 853.83398 C 925.57027 850.48132 927.48475 847.6676 929.75977 845.39258 C 932.03479 842.99782 934.55071 841.20129 937.30469 840.00391 C 940.17839 838.80653 943.17001 838.20703 946.2832 838.20703 z M 1135.9102 838.74609 C 1139.6221 838.74609 1143.0334 839.58539 1146.1465 841.26172 C 1149.2597 842.81831 1151.8955 845.09248 1154.0508 848.08594 C 1156.3258 851.07938 1158.0624 854.67245 1159.2598 858.86328 C 1160.4571 862.93437 1161.0547 867.48468 1161.0547 872.51367 C 1161.0547 877.54267 1160.4571 882.09102 1159.2598 886.16211 C 1158.0624 890.2332 1156.3258 893.76632 1154.0508 896.75977 C 1151.8955 899.63348 1149.2597 901.90765 1146.1465 903.58398 C 1143.0334 905.14058 1139.6221 905.91992 1135.9102 905.91992 C 1132.1983 905.91992 1128.7851 905.14058 1125.6719 903.58398 C 1122.5587 901.90765 1119.8649 899.63348 1117.5898 896.75977 C 1115.4346 893.76632 1113.7579 890.2332 1112.5605 886.16211 C 1111.3632 882.09102 1110.7656 877.54267 1110.7656 872.51367 C 1110.7656 867.48468 1111.3632 862.93437 1112.5605 858.86328 C 1113.7579 854.67245 1115.4346 851.07938 1117.5898 848.08594 C 1119.8649 845.09248 1122.5587 842.81831 1125.6719 841.26172 C 1128.7851 839.58539 1132.1983 838.74609 1135.9102 838.74609 z M 1411.2832 838.74609 C 1414.9951 838.74609 1418.4083 839.58539 1421.5215 841.26172 C 1424.6346 842.81831 1427.2685 845.09248 1429.4238 848.08594 C 1431.6988 851.07938 1433.4354 854.67245 1434.6328 858.86328 C 1435.8301 862.93437 1436.4297 867.48468 1436.4297 872.51367 C 1436.4297 877.54267 1435.8301 882.09102 1434.6328 886.16211 C 1433.4354 890.2332 1431.6988 893.76632 1429.4238 896.75977 C 1427.2685 899.63348 1424.6346 901.90765 1421.5215 903.58398 C 1418.4083 905.14058 1414.9951 905.91992 1411.2832 905.91992 C 1407.5713 905.91992 1404.16 905.14058 1401.0469 903.58398 C 1397.9337 901.90765 1395.2398 899.63348 1392.9648 896.75977 C 1390.8095 893.76632 1389.1329 890.2332 1387.9355 886.16211 C 1386.7381 882.09102 1386.1387 877.54267 1386.1387 872.51367 C 1386.1387 867.48468 1386.7381 862.93437 1387.9355 858.86328 C 1389.1329 854.67245 1390.8095 851.07938 1392.9648 848.08594 C 1395.2398 845.09248 1397.9337 842.81831 1401.0469 841.26172 C 1404.16 839.58539 1407.5713 838.74609 1411.2832 838.74609 z M 3011.9609 838.74609 C 3015.6728 838.74609 3019.086 839.58539 3022.1992 841.26172 C 3025.3124 842.81831 3027.9463 845.09248 3030.1016 848.08594 C 3032.3766 851.07938 3034.1132 854.67245 3035.3105 858.86328 C 3036.5079 862.93437 3037.1055 867.48468 3037.1055 872.51367 C 3037.1055 877.54267 3036.5079 882.09102 3035.3105 886.16211 C 3034.1132 890.2332 3032.3766 893.76632 3030.1016 896.75977 C 3027.9463 899.63348 3025.3124 901.90765 3022.1992 903.58398 C 3019.086 905.14058 3015.6728 905.91992 3011.9609 905.91992 C 3008.2491 905.91992 3004.8359 905.14058 3001.7227 903.58398 C 2998.6095 901.90765 2995.9156 899.63348 2993.6406 896.75977 C 2991.4854 893.76632 2989.8087 890.2332 2988.6113 886.16211 C 2987.4139 882.09102 2986.8164 877.54267 2986.8164 872.51367 C 2986.8164 867.48468 2987.4139 862.93437 2988.6113 858.86328 C 2989.8087 854.67245 2991.4854 851.07938 2993.6406 848.08594 C 2995.9156 845.09248 2998.6095 842.81831 3001.7227 841.26172 C 3004.8359 839.58539 3008.2491 838.74609 3011.9609 838.74609 z M 1040.416 838.92578 C 1044.4871 838.92578 1047.9583 839.70513 1050.832 841.26172 C 1053.8255 842.81831 1056.2196 845.03254 1058.0156 847.90625 C 1059.9314 850.66022 1061.3103 854.01349 1062.1484 857.96484 C 1062.9866 861.9162 1063.4043 866.28665 1063.4043 871.07617 C 1063.4043 876.46439 1062.7468 881.31443 1061.4297 885.625 C 1060.2323 889.93557 1058.4957 893.58662 1056.2207 896.58008 C 1054.0654 899.45379 1051.4316 901.72992 1048.3184 903.40625 C 1045.3249 904.96284 1042.0316 905.74023 1038.4395 905.74023 C 1035.5657 905.74023 1032.2724 905.08079 1028.5605 903.76367 C 1024.8487 902.32681 1021.0177 899.93274 1017.0664 896.58008 L 1017.0664 850.78125 C 1021.3769 846.94964 1025.3877 844.01602 1029.0996 841.98047 C 1032.9313 839.94492 1036.7041 838.92578 1040.416 838.92578 z M 1884.3359 838.92578 C 1887.9281 838.92578 1891.3993 839.64517 1894.752 841.08203 C 1898.2244 842.39914 1901.8174 844.73327 1905.5293 848.08594 L 1905.5293 893.70703 C 1901.9372 897.77812 1898.3441 900.83164 1894.752 902.86719 C 1891.1598 904.78299 1887.3289 905.74023 1883.2578 905.74023 C 1875.5946 905.74023 1869.6674 902.80661 1865.4766 896.93945 C 1861.2858 891.07229 1859.1895 882.87093 1859.1895 872.33398 C 1859.1895 867.30499 1859.8489 862.75469 1861.166 858.68359 C 1862.4831 854.6125 1864.2796 851.13933 1866.5547 848.26562 C 1868.8297 845.27217 1871.4636 842.998 1874.457 841.44141 C 1877.5702 839.76507 1880.8635 838.92578 1884.3359 838.92578 z M 2670.9102 838.92578 C 2674.9812 838.92578 2678.4524 839.70513 2681.3262 841.26172 C 2684.3196 842.81831 2686.7157 845.03254 2688.5117 847.90625 C 2690.4275 850.66022 2691.8044 854.01349 2692.6426 857.96484 C 2693.4808 861.9162 2693.8984 866.28665 2693.8984 871.07617 C 2693.8984 876.46439 2693.241 881.31443 2691.9238 885.625 C 2690.7264 889.93557 2688.9898 893.58662 2686.7148 896.58008 C 2684.5596 899.45379 2681.9257 901.72992 2678.8125 903.40625 C 2675.819 904.96284 2672.5257 905.74023 2668.9336 905.74023 C 2666.0599 905.74023 2662.7666 905.08079 2659.0547 903.76367 C 2655.3428 902.32681 2651.5119 899.93274 2647.5605 896.58008 L 2647.5605 850.78125 C 2651.8711 846.94964 2655.8818 844.01602 2659.5938 841.98047 C 2663.4254 839.94492 2667.1983 838.92578 2670.9102 838.92578 z M 774.39648 870.35742 L 774.39648 894.60547 C 770.20566 898.43708 766.25485 901.3707 762.54297 903.40625 C 758.83109 905.32206 754.88028 906.2793 750.68945 906.2793 C 746.37889 906.2793 742.72588 905.20216 739.73242 903.04688 C 736.73898 900.89159 735.24219 897.29852 735.24219 892.26953 C 735.24219 889.51556 735.90164 887.00158 737.21875 884.72656 C 738.65561 882.3318 740.86983 880.23553 743.86328 878.43945 C 746.97647 876.64339 750.98918 875.08665 755.89844 873.76953 C 760.92743 872.45241 767.09246 871.31532 774.39648 870.35742 z M 1709.6172 870.35742 L 1709.6172 894.60547 C 1705.4264 898.43708 1701.4736 901.3707 1697.7617 903.40625 C 1694.0498 905.32206 1690.099 906.2793 1685.9082 906.2793 C 1681.5976 906.2793 1677.9465 905.20216 1674.9531 903.04688 C 1671.9597 900.89159 1670.4629 897.29852 1670.4629 892.26953 C 1670.4629 889.51556 1671.1204 887.00158 1672.4375 884.72656 C 1673.8744 882.3318 1676.0906 880.23553 1679.084 878.43945 C 1682.1972 876.64339 1686.2079 875.08665 1691.1172 873.76953 C 1696.1462 872.45241 1702.3132 871.31532 1709.6172 870.35742 z M 2229.8457 870.35742 L 2229.8457 894.60547 C 2225.6549 898.43708 2221.7041 901.3707 2217.9922 903.40625 C 2214.2803 905.32206 2210.3275 906.2793 2206.1367 906.2793 C 2201.8261 906.2793 2198.1751 905.20216 2195.1816 903.04688 C 2192.1882 900.89159 2190.6914 897.29852 2190.6914 892.26953 C 2190.6914 889.51556 2191.3489 887.00158 2192.666 884.72656 C 2194.1028 882.3318 2196.319 880.23553 2199.3125 878.43945 C 2202.4257 876.64339 2206.4364 875.08665 2211.3457 873.76953 C 2216.3747 872.45241 2222.5417 871.31532 2229.8457 870.35742 z M 2826.5469 870.35742 L 2826.5469 894.60547 C 2822.356 898.43708 2818.4052 901.3707 2814.6934 903.40625 C 2810.9815 905.32206 2807.0307 906.2793 2802.8398 906.2793 C 2798.5293 906.2793 2794.8763 905.20216 2791.8828 903.04688 C 2788.8893 900.89159 2787.3926 897.29852 2787.3926 892.26953 C 2787.3926 889.51556 2788.052 887.00158 2789.3691 884.72656 C 2790.806 882.3318 2793.0202 880.23553 2796.0137 878.43945 C 2799.1269 876.64339 2803.1396 875.08665 2808.0488 873.76953 C 2813.0778 872.45241 2819.2428 871.31532 2826.5469 870.35742 z "
     style="font-style:normal;font-variant:normal;font-weight:normal;font-stretch:normal;font-size:179.607px;line-height:1.25;font-family:'Source Sans Pro';-inkscape-font-specification:'Source Sans Pro Normal';font-variant-ligatures:normal;font-variant-caps:normal;font-variant-numeric:normal;font-variant-east-asian:normal;text-align:center;text-anchor:middle;fill:#ffffff;stroke-width:2.92838"
     id="path999" />
</svg>
